<svg xmlns="http://www.w3.org/2000/svg" width="63.391" height="94.401" viewBox="0 0 63.391 94.401">
  <title>logo-variante-2</title>
  <g class='signdict-logo'>
    <path class='signdict-logo' d="M10.034,18.9c0,2.446,6,.7,6,4.852,0,2.068-1.75,3.4-4.593,3.4a7.772,7.772,0,0,1-3.917-1.113l.974-1.67a4.973,4.973,0,0,0,2.883.915c1.432,0,2.386-.577,2.386-1.412,0-2.485-6-.8-6-4.851,0-2.107,1.65-3.42,4.235-3.42a6.823,6.823,0,0,1,3.5.9l-.775,1.57a5.951,5.951,0,0,0-2.645-.616C10.81,17.452,10.034,18.028,10.034,18.9Z"/>
    <path class='signdict-logo' d="M19.671,13.933a1.462,1.462,0,0,1-1.551-1.392,1.549,1.549,0,0,1,3.082,0A1.456,1.456,0,0,1,19.671,13.933Zm-1.133,1.988h2.287V26.856H18.538Z"/>
    <path class='signdict-logo' d="M31.63,15.921h1.83V26.478c0,3.142-1.75,5.09-4.971,5.09a8.047,8.047,0,0,1-4.116-1.093l.855-1.63a7.106,7.106,0,0,0,3.2.815c1.849,0,2.744-1.272,2.744-3.38V25.107a3.491,3.491,0,0,1-3.062,1.869c-2.724,0-4.652-2.247-4.652-5.606s1.889-5.547,4.712-5.547a4.485,4.485,0,0,1,3.122,1.113Zm-3.121,9.046a3.075,3.075,0,0,0,2.624-2.008V18.665a3.542,3.542,0,0,0-2.6-.855c-1.63,0-2.7,1.432-2.7,3.559C25.825,23.536,26.958,24.967,28.509,24.967Z"/>
    <path class='signdict-logo' d="M38.879,19.2v7.655H36.613V15.921h1.909l.3,1.61a5.1,5.1,0,0,1,3.9-1.809c2.068,0,3.3,1.372,3.3,4.036v7.1H43.731V20.017c0-1.551-.617-2.366-1.79-2.366A3.767,3.767,0,0,0,38.879,19.2Z"/>
    <path class='signdict-logo' d="M17.868,32.948V45.891a8.008,8.008,0,0,0,.358,2.426H16.6a3.742,3.742,0,0,1-.8-1.71,3.922,3.922,0,0,1-3.281,1.949c-2.724,0-4.672-2.287-4.672-5.746s1.889-5.726,4.712-5.726a4.707,4.707,0,0,1,3.022.974v-5.11Zm-4.832,13.62a2.97,2.97,0,0,0,2.505-2.107V39.847a3.77,3.77,0,0,0-2.466-.835c-1.75,0-2.863,1.551-2.863,3.8S11.386,46.567,13.037,46.567Z"/>
    <path class='signdict-logo' d="M22.419,35.394A1.4,1.4,0,1,1,23.95,34,1.462,1.462,0,0,1,22.419,35.394Zm-1.133,1.988h2.287V48.317H21.286Z"/>
    <path class='signdict-logo' d="M26.218,42.869c0-3.519,2.187-5.786,5.468-5.786a6.844,6.844,0,0,1,3.42.855l-.835,1.61a6.233,6.233,0,0,0-2.545-.557c-1.909,0-3.141,1.451-3.141,3.877,0,2.386,1.232,3.837,3.141,3.837a5.869,5.869,0,0,0,2.545-.656l.855,1.71a7.194,7.194,0,0,1-3.439.855C28.4,48.615,26.218,46.369,26.218,42.869Z"/>
    <path class='signdict-logo' d="M41.456,48.377c-1.988,0-2.942-.935-2.942-2.823V39.31H36.943V37.382h1.571V34.936l2.267-.875v3.32h2.843V39.31H40.78V45.1c0,.915.358,1.332,1.173,1.332a6.537,6.537,0,0,0,1.591-.219l.358,1.829A8.862,8.862,0,0,1,41.456,48.377Z"/>
  </g>
  <path class='signdict-logo' d="M0,3.3,1.107,90.545a1.513,1.513,0,0,0,1.9,1.446A84.612,84.612,0,0,0,31.8,75.453H29.675a93.227,93.227,0,0,0,29.95,18.866,1.512,1.512,0,0,0,1.9-1.446L63.391,3.021a1.511,1.511,0,0,0-1.5-1.5A254.5,254.5,0,0,1,10.981.015c-1.909-.249-1.891,2.753,0,3a254.5,254.5,0,0,0,50.91,1.506l-1.5-1.5L58.523,92.872l1.9-1.446A89.3,89.3,0,0,1,31.8,73.332a1.539,1.539,0,0,0-2.121,0A80.737,80.737,0,0,1,2.208,89.1l1.9,1.446L3,3.3a1.5,1.5,0,0,0-3,0Z"/>
</svg>
