<svg xmlns="http://www.w3.org/2000/svg" width="186.147" height="101.539" viewBox="0 0 186.147 101.539"><title>hands</title><path d="M174.352 34.339l11.8-2.372s-7.2 45.155-7.584 45.3-50.738 21.355-50.738 21.355l-31.8-61.867 9.114-4.956 12.476 22.386 2.673-1.053-15.573-35.724 10.4-5.009 14.692 29.7 2.817-.655-11.548-35.487 10.073-3.514 13.317 34.34 3.963-1.106-8.488-33.057L151.215 0l14.651 52.471zM11.99 51.447L0 52.231s17.817 41.835 18.223 41.881 54.251 7.427 54.251 7.427l15.926-68.2-10.009-2.418-6.7 24.93-2.841-.322 6.489-38.655-11.278-2.132-7.09 32.593-2.885.1 2.66-37.376-10.6-.771-4.641 36.724-4.1-.036.279-34.221-11.54.406-1.585 54.624z" fill="#50d8c8"/></svg>