<?xml version="1.0" encoding="utf-8"?>
<svg viewBox="0 0 111.516 122.375" width="111.516px" height="122.375px" xmlns="http://www.w3.org/2000/svg">
  <g>
    <line style="stroke: rgb(0, 0, 0); stroke-linecap: round;" x1="17.264" y1="42.578" x2="45.77" y2="57.535"/>
    <polygon style="stroke-linejoin: round; stroke-linecap: round; fill: rgb(255, 255, 0); stroke: rgb(0, 0, 0);" points="1.096 33.506 9.367 33.853 14.665 27.609 16.656 35.23 24.563 37.867 17.425 42.395 16.913 50.362 10.439 45.307 2.327 47.571 5.52 40.087"/>
  </g>
  <g id="g3790" transform="matrix(1, 0, 0, 1, 14.133463, -9.611184)">
    <g transform="matrix(1, 0, 0, 1, 4.760876, 0.056592)">
      <path id="path4763" d="M 34.014 90 L 85.585 90 C 88.02 90 90 88.02 90 85.586 L 90 48.254 C 90 27.16 72.839 10 51.746 10 L 48.254 10 C 27.161 10 10 27.16 10 48.254 L 10 65.333 C 10 68.642 12.691 71.333 16 71.333 C 19.309 71.333 22 68.642 22 65.333 L 22 49.133 C 22 47.037 23.705 45.333 25.8 45.333 C 27.895 45.333 29.599 47.037 29.599 49.133 L 29.599 85.586 C 29.599 88.02 31.58 90 34.014 90 Z" style="fill: rgb(167, 167, 167); fill-opacity: 1; stroke: rgb(0, 0, 0); stroke-miterlimit: 4; stroke-dasharray: none; stroke-opacity: 1;"/>
      <path d="M 60.25 49.546 C 67.477 49.546 73.356 43.666 73.356 36.439 C 73.356 29.213 67.477 23.333 60.25 23.333 L 48.144 23.333 C 47.591 23.333 47.144 23.78 47.144 24.333 L 47.144 36.439 C 47.144 43.666 53.023 49.546 60.25 49.546 Z" id="path4799" style="fill: rgb(102, 102, 102); fill-opacity: 1; stroke: rgb(0, 0, 0); stroke-miterlimit: 4; stroke-dasharray: none; stroke-opacity: 1;"/>
      <path style="fill: none; stroke-linecap: round; stroke: rgb(0, 0, 0);" d="M 32.242 33.698 C 32.322 28.376 40.408 26.459 41.364 33.668"/>
    </g>
  </g>
  <path d="M 3.563 102.435 L 0.143 91.845 L 1.603 91.845 C 1.756 91.845 1.883 91.885 1.983 91.965 C 2.076 92.038 2.14 92.128 2.173 92.235 L 4.203 99.045 C 4.256 99.298 4.31 99.542 4.363 99.775 C 4.41 100.008 4.45 100.245 4.483 100.485 C 4.543 100.245 4.606 100.008 4.673 99.775 C 4.746 99.542 4.82 99.298 4.893 99.045 L 7.133 92.195 C 7.166 92.088 7.226 92.002 7.313 91.935 C 7.4 91.862 7.51 91.825 7.643 91.825 L 8.443 91.825 C 8.583 91.825 8.7 91.862 8.793 91.935 C 8.88 92.002 8.943 92.088 8.983 92.195 L 11.163 99.045 C 11.243 99.292 11.31 99.535 11.363 99.775 C 11.423 100.008 11.483 100.242 11.543 100.475 C 11.576 100.242 11.62 99.998 11.673 99.745 C 11.733 99.498 11.793 99.265 11.853 99.045 L 13.923 92.235 C 13.956 92.122 14.023 92.028 14.123 91.955 C 14.216 91.882 14.33 91.845 14.463 91.845 L 15.863 91.845 L 12.443 102.435 L 10.963 102.435 C 10.783 102.435 10.66 102.315 10.593 102.075 L 8.253 94.905 C 8.193 94.745 8.146 94.582 8.113 94.415 C 8.08 94.248 8.046 94.085 8.013 93.925 C 7.973 94.085 7.936 94.248 7.903 94.415 C 7.87 94.588 7.823 94.755 7.763 94.915 L 5.393 102.075 C 5.32 102.315 5.176 102.435 4.963 102.435 L 3.563 102.435 ZM 17.729 91.845 L 19.589 91.845 L 19.589 102.435 L 17.729 102.435 L 17.729 91.845 Z M 20.009 88.525 C 20.009 88.705 19.972 88.875 19.899 89.035 C 19.825 89.188 19.729 89.328 19.609 89.455 C 19.489 89.575 19.349 89.668 19.189 89.735 C 19.029 89.808 18.859 89.845 18.679 89.845 C 18.492 89.845 18.322 89.808 18.169 89.735 C 18.009 89.668 17.869 89.575 17.749 89.455 C 17.629 89.328 17.532 89.188 17.459 89.035 C 17.392 88.875 17.359 88.705 17.359 88.525 C 17.359 88.345 17.392 88.172 17.459 88.005 C 17.532 87.845 17.629 87.705 17.749 87.585 C 17.869 87.458 18.009 87.362 18.169 87.295 C 18.322 87.222 18.492 87.185 18.679 87.185 C 18.859 87.185 19.029 87.222 19.189 87.295 C 19.349 87.362 19.489 87.458 19.609 87.585 C 19.729 87.705 19.825 87.845 19.899 88.005 C 19.972 88.172 20.009 88.345 20.009 88.525 ZM 29.348 92.915 L 28.938 93.595 C 28.851 93.748 28.721 93.825 28.548 93.825 C 28.441 93.825 28.321 93.785 28.188 93.705 C 28.061 93.632 27.901 93.548 27.708 93.455 C 27.514 93.362 27.284 93.275 27.018 93.195 C 26.758 93.115 26.444 93.075 26.078 93.075 C 25.764 93.075 25.484 93.115 25.238 93.195 C 24.984 93.275 24.768 93.385 24.588 93.525 C 24.414 93.665 24.281 93.825 24.188 94.005 C 24.094 94.192 24.048 94.392 24.048 94.605 C 24.048 94.878 24.124 95.105 24.278 95.285 C 24.438 95.465 24.644 95.622 24.898 95.755 C 25.158 95.888 25.451 96.005 25.778 96.105 C 26.104 96.205 26.441 96.315 26.788 96.435 C 27.134 96.548 27.471 96.675 27.798 96.815 C 28.124 96.955 28.418 97.128 28.678 97.335 C 28.931 97.542 29.138 97.798 29.298 98.105 C 29.451 98.405 29.528 98.768 29.528 99.195 C 29.528 99.682 29.441 100.132 29.268 100.545 C 29.094 100.965 28.838 101.325 28.498 101.625 C 28.158 101.925 27.738 102.165 27.238 102.345 C 26.744 102.518 26.174 102.605 25.528 102.605 C 24.788 102.605 24.118 102.485 23.518 102.245 C 22.918 102.005 22.411 101.695 21.998 101.315 L 22.438 100.605 C 22.491 100.518 22.558 100.448 22.638 100.395 C 22.711 100.348 22.811 100.325 22.938 100.325 C 23.064 100.325 23.198 100.375 23.338 100.475 C 23.471 100.568 23.638 100.675 23.838 100.795 C 24.038 100.915 24.278 101.022 24.558 101.115 C 24.844 101.215 25.198 101.265 25.618 101.265 C 25.984 101.265 26.301 101.218 26.568 101.125 C 26.841 101.032 27.068 100.905 27.248 100.745 C 27.434 100.585 27.571 100.398 27.658 100.185 C 27.744 99.978 27.788 99.755 27.788 99.515 C 27.788 99.228 27.708 98.988 27.548 98.795 C 27.394 98.602 27.188 98.438 26.928 98.305 C 26.668 98.165 26.374 98.045 26.048 97.945 C 25.714 97.845 25.374 97.738 25.028 97.625 C 24.688 97.518 24.351 97.392 24.018 97.245 C 23.684 97.105 23.391 96.925 23.138 96.705 C 22.878 96.492 22.671 96.225 22.518 95.905 C 22.358 95.592 22.278 95.208 22.278 94.755 C 22.278 94.348 22.361 93.958 22.528 93.585 C 22.694 93.218 22.938 92.892 23.258 92.605 C 23.578 92.325 23.971 92.102 24.438 91.935 C 24.904 91.768 25.438 91.685 26.038 91.685 C 26.738 91.685 27.364 91.795 27.918 92.015 C 28.471 92.235 28.948 92.535 29.348 92.915 ZM 33.806 102.435 L 31.946 102.435 L 31.946 87.045 L 33.806 87.045 L 33.806 93.275 C 34.26 92.788 34.76 92.402 35.306 92.115 C 35.86 91.828 36.493 91.685 37.206 91.685 C 37.786 91.685 38.296 91.778 38.736 91.965 C 39.183 92.158 39.553 92.432 39.846 92.785 C 40.146 93.138 40.373 93.562 40.526 94.055 C 40.68 94.548 40.756 95.095 40.756 95.695 L 40.756 102.435 L 38.886 102.435 L 38.886 95.695 C 38.886 94.895 38.706 94.272 38.346 93.825 C 37.98 93.385 37.42 93.165 36.666 93.165 C 36.113 93.165 35.6 93.298 35.126 93.565 C 34.646 93.832 34.206 94.188 33.806 94.635 L 33.806 102.435 ZM 43.764 87.045 L 45.624 87.045 L 45.624 102.435 L 43.764 102.435 L 43.764 87.045 ZM 53.103 91.685 C 53.736 91.685 54.32 91.792 54.853 92.005 C 55.393 92.212 55.856 92.518 56.243 92.925 C 56.636 93.325 56.943 93.818 57.163 94.405 C 57.383 94.992 57.493 95.662 57.493 96.415 C 57.493 96.708 57.46 96.905 57.393 97.005 C 57.333 97.098 57.216 97.145 57.043 97.145 L 49.993 97.145 C 50.006 97.818 50.096 98.402 50.263 98.895 C 50.43 99.388 50.66 99.802 50.953 100.135 C 51.246 100.462 51.596 100.708 52.003 100.875 C 52.403 101.035 52.856 101.115 53.363 101.115 C 53.83 101.115 54.23 101.062 54.563 100.955 C 54.903 100.848 55.196 100.732 55.443 100.605 C 55.683 100.478 55.886 100.362 56.053 100.255 C 56.213 100.148 56.353 100.095 56.473 100.095 C 56.626 100.095 56.746 100.155 56.833 100.275 L 57.353 100.955 C 57.12 101.228 56.843 101.468 56.523 101.675 C 56.203 101.882 55.86 102.052 55.493 102.185 C 55.133 102.318 54.756 102.418 54.363 102.485 C 53.976 102.552 53.59 102.585 53.203 102.585 C 52.47 102.585 51.796 102.462 51.183 102.215 C 50.563 101.962 50.03 101.598 49.583 101.125 C 49.136 100.645 48.786 100.055 48.533 99.355 C 48.28 98.648 48.153 97.838 48.153 96.925 C 48.153 96.192 48.266 95.502 48.493 94.855 C 48.72 94.215 49.046 93.662 49.473 93.195 C 49.9 92.722 50.42 92.352 51.033 92.085 C 51.646 91.818 52.336 91.685 53.103 91.685 Z M 53.143 93.055 C 52.243 93.055 51.536 93.312 51.023 93.825 C 50.503 94.345 50.183 95.065 50.063 95.985 L 55.813 95.985 C 55.813 95.552 55.756 95.158 55.643 94.805 C 55.523 94.445 55.346 94.135 55.113 93.875 C 54.886 93.608 54.606 93.405 54.273 93.265 C 53.946 93.125 53.57 93.055 53.143 93.055 ZM 61.722 106.015 L 59.862 106.015 L 59.862 91.845 L 60.962 91.845 C 61.229 91.845 61.395 91.975 61.462 92.235 L 61.622 93.485 C 62.075 92.938 62.592 92.498 63.172 92.165 C 63.759 91.832 64.432 91.665 65.192 91.665 C 65.792 91.665 66.342 91.782 66.842 92.015 C 67.335 92.248 67.755 92.592 68.102 93.045 C 68.449 93.505 68.719 94.072 68.912 94.745 C 69.099 95.418 69.192 96.195 69.192 97.075 C 69.192 97.855 69.085 98.582 68.872 99.255 C 68.665 99.928 68.369 100.508 67.982 100.995 C 67.589 101.488 67.109 101.875 66.542 102.155 C 65.975 102.442 65.335 102.585 64.622 102.585 C 63.969 102.585 63.409 102.475 62.942 102.255 C 62.482 102.042 62.075 101.735 61.722 101.335 L 61.722 106.015 Z M 64.572 93.165 C 63.965 93.165 63.435 93.305 62.982 93.585 C 62.522 93.865 62.102 94.258 61.722 94.765 L 61.722 99.885 C 62.062 100.345 62.435 100.668 62.842 100.855 C 63.249 101.042 63.702 101.135 64.202 101.135 C 65.189 101.135 65.945 100.785 66.472 100.085 C 66.999 99.378 67.262 98.375 67.262 97.075 C 67.262 96.382 67.202 95.788 67.082 95.295 C 66.962 94.802 66.785 94.398 66.552 94.085 C 66.325 93.765 66.045 93.532 65.712 93.385 C 65.379 93.238 64.999 93.165 64.572 93.165 ZM 73.256 102.435 L 71.396 102.435 L 71.396 87.045 L 73.256 87.045 L 73.256 93.275 C 73.709 92.788 74.209 92.402 74.756 92.115 C 75.309 91.828 75.943 91.685 76.656 91.685 C 77.236 91.685 77.746 91.778 78.186 91.965 C 78.633 92.158 79.003 92.432 79.296 92.785 C 79.596 93.138 79.823 93.562 79.976 94.055 C 80.129 94.548 80.206 95.095 80.206 95.695 L 80.206 102.435 L 78.336 102.435 L 78.336 95.695 C 78.336 94.895 78.156 94.272 77.796 93.825 C 77.429 93.385 76.869 93.165 76.116 93.165 C 75.563 93.165 75.049 93.298 74.576 93.565 C 74.096 93.832 73.656 94.188 73.256 94.635 L 73.256 102.435 ZM 90.784 95.665 L 90.784 102.435 L 89.954 102.435 C 89.774 102.435 89.63 102.408 89.524 102.355 C 89.41 102.295 89.337 102.175 89.304 101.995 L 89.094 101.015 C 88.814 101.268 88.54 101.492 88.274 101.685 C 88.014 101.885 87.737 102.052 87.444 102.185 C 87.15 102.325 86.837 102.428 86.504 102.495 C 86.17 102.568 85.804 102.605 85.404 102.605 C 84.99 102.605 84.604 102.545 84.244 102.425 C 83.89 102.312 83.58 102.142 83.314 101.915 C 83.047 101.682 82.837 101.388 82.684 101.035 C 82.524 100.688 82.444 100.275 82.444 99.795 C 82.444 99.375 82.56 98.972 82.794 98.585 C 83.02 98.198 83.39 97.855 83.904 97.555 C 84.417 97.255 85.087 97.008 85.914 96.815 C 86.74 96.628 87.754 96.518 88.954 96.485 L 88.954 95.665 C 88.954 94.845 88.777 94.222 88.424 93.795 C 88.077 93.375 87.557 93.165 86.864 93.165 C 86.41 93.165 86.03 93.222 85.724 93.335 C 85.41 93.455 85.14 93.585 84.914 93.725 C 84.687 93.865 84.494 93.995 84.334 94.115 C 84.167 94.228 84.004 94.285 83.844 94.285 C 83.717 94.285 83.607 94.252 83.514 94.185 C 83.42 94.118 83.347 94.035 83.294 93.935 L 82.954 93.345 C 83.54 92.778 84.17 92.355 84.844 92.075 C 85.524 91.802 86.274 91.665 87.094 91.665 C 87.687 91.665 88.214 91.762 88.674 91.955 C 89.134 92.148 89.52 92.418 89.834 92.765 C 90.147 93.118 90.384 93.542 90.544 94.035 C 90.704 94.528 90.784 95.072 90.784 95.665 Z M 85.954 101.295 C 86.28 101.295 86.58 101.262 86.854 101.195 C 87.127 101.128 87.384 101.035 87.624 100.915 C 87.864 100.795 88.094 100.648 88.314 100.475 C 88.534 100.295 88.747 100.095 88.954 99.875 L 88.954 97.665 C 88.1 97.698 87.374 97.768 86.774 97.875 C 86.174 97.982 85.684 98.122 85.304 98.295 C 84.93 98.468 84.657 98.675 84.484 98.915 C 84.317 99.148 84.234 99.412 84.234 99.705 C 84.234 99.985 84.277 100.225 84.364 100.425 C 84.457 100.632 84.58 100.798 84.734 100.925 C 84.887 101.052 85.067 101.145 85.274 101.205 C 85.487 101.265 85.714 101.295 85.954 101.295 ZM 95.468 102.435 L 93.608 102.435 L 93.608 91.845 L 94.708 91.845 C 94.974 91.845 95.141 91.975 95.208 92.235 L 95.358 93.385 C 95.818 92.878 96.331 92.468 96.898 92.155 C 97.464 91.842 98.121 91.685 98.868 91.685 C 99.448 91.685 99.958 91.778 100.398 91.965 C 100.844 92.158 101.214 92.432 101.508 92.785 C 101.808 93.138 102.034 93.562 102.188 94.055 C 102.341 94.548 102.418 95.095 102.418 95.695 L 102.418 102.435 L 100.548 102.435 L 100.548 95.695 C 100.548 94.895 100.368 94.272 100.008 93.825 C 99.641 93.385 99.081 93.165 98.328 93.165 C 97.774 93.165 97.261 93.298 96.788 93.565 C 96.308 93.832 95.868 94.188 95.468 94.635 L 95.468 102.435 ZM 108.425 102.605 C 107.592 102.605 106.952 102.372 106.505 101.905 C 106.052 101.438 105.825 100.765 105.825 99.885 L 105.825 93.405 L 104.555 93.405 C 104.442 93.405 104.345 93.372 104.265 93.305 C 104.192 93.238 104.155 93.135 104.155 92.995 L 104.155 92.255 L 105.885 92.035 L 106.315 88.765 C 106.329 88.658 106.375 88.575 106.455 88.515 C 106.529 88.448 106.625 88.415 106.745 88.415 L 107.685 88.415 L 107.685 92.055 L 110.715 92.055 L 110.715 93.405 L 107.685 93.405 L 107.685 99.755 C 107.685 100.202 107.795 100.535 108.015 100.755 C 108.229 100.968 108.505 101.075 108.845 101.075 C 109.039 101.075 109.209 101.048 109.355 100.995 C 109.495 100.942 109.619 100.885 109.725 100.825 C 109.832 100.765 109.922 100.708 109.995 100.655 C 110.069 100.602 110.132 100.575 110.185 100.575 C 110.285 100.575 110.372 100.635 110.445 100.755 L 110.985 101.645 C 110.665 101.945 110.279 102.178 109.825 102.345 C 109.372 102.518 108.905 102.605 108.425 102.605 Z" transform="matrix(1, 0, 0, 1, 0, 0)" style="fill: rgb(51, 51, 51); white-space: pre;"/>
  <path d="M 8.317 119.672 L 7.637 119.672 C 7.477 119.672 7.374 119.592 7.327 119.432 L 7.227 118.642 C 6.947 118.982 6.627 119.252 6.267 119.452 C 5.907 119.659 5.494 119.762 5.027 119.762 C 4.654 119.762 4.317 119.689 4.017 119.542 C 3.71 119.402 3.45 119.192 3.237 118.912 C 3.017 118.632 2.85 118.282 2.737 117.862 C 2.617 117.449 2.557 116.972 2.557 116.432 C 2.557 115.945 2.624 115.495 2.757 115.082 C 2.884 114.669 3.07 114.309 3.317 114.002 C 3.557 113.695 3.85 113.455 4.197 113.282 C 4.55 113.109 4.947 113.022 5.387 113.022 C 5.787 113.022 6.13 113.089 6.417 113.222 C 6.697 113.362 6.95 113.552 7.177 113.792 L 7.177 110.172 L 8.317 110.172 L 8.317 119.672 Z M 5.417 118.832 C 5.79 118.832 6.117 118.745 6.397 118.572 C 6.677 118.405 6.937 118.162 7.177 117.842 L 7.177 114.682 C 6.964 114.402 6.73 114.205 6.477 114.092 C 6.23 113.979 5.954 113.922 5.647 113.922 C 5.034 113.922 4.564 114.139 4.237 114.572 C 3.91 115.005 3.747 115.625 3.747 116.432 C 3.747 116.852 3.784 117.215 3.857 117.522 C 3.93 117.822 4.037 118.072 4.177 118.272 C 4.324 118.465 4.5 118.609 4.707 118.702 C 4.914 118.789 5.15 118.832 5.417 118.832 ZM 12.835 113.032 C 13.229 113.032 13.589 113.099 13.915 113.232 C 14.249 113.365 14.535 113.555 14.775 113.802 C 15.015 114.049 15.202 114.352 15.335 114.712 C 15.475 115.079 15.545 115.492 15.545 115.952 C 15.545 116.139 15.525 116.262 15.485 116.322 C 15.445 116.382 15.372 116.412 15.265 116.412 L 10.915 116.412 C 10.929 116.825 10.985 117.182 11.085 117.482 C 11.192 117.789 11.335 118.045 11.515 118.252 C 11.695 118.452 11.909 118.605 12.155 118.712 C 12.409 118.812 12.689 118.862 12.995 118.862 C 13.282 118.862 13.529 118.829 13.735 118.762 C 13.949 118.695 14.129 118.622 14.275 118.542 C 14.429 118.469 14.555 118.399 14.655 118.332 C 14.755 118.265 14.842 118.232 14.915 118.232 C 15.009 118.232 15.082 118.265 15.135 118.332 L 15.455 118.752 C 15.315 118.925 15.145 119.075 14.945 119.202 C 14.752 119.329 14.542 119.435 14.315 119.522 C 14.089 119.602 13.855 119.662 13.615 119.702 C 13.375 119.742 13.135 119.762 12.895 119.762 C 12.449 119.762 12.032 119.685 11.645 119.532 C 11.265 119.379 10.939 119.155 10.665 118.862 C 10.385 118.569 10.169 118.205 10.015 117.772 C 9.862 117.339 9.785 116.839 9.785 116.272 C 9.785 115.819 9.855 115.392 9.995 114.992 C 10.135 114.599 10.335 114.255 10.595 113.962 C 10.855 113.675 11.175 113.449 11.555 113.282 C 11.935 113.115 12.362 113.032 12.835 113.032 Z M 12.855 113.882 C 12.302 113.882 11.865 114.042 11.545 114.362 C 11.232 114.682 11.035 115.125 10.955 115.692 L 14.515 115.692 C 14.515 115.425 14.479 115.182 14.405 114.962 C 14.332 114.742 14.222 114.549 14.075 114.382 C 13.935 114.222 13.762 114.099 13.555 114.012 C 13.355 113.925 13.122 113.882 12.855 113.882 ZM 17.132 113.142 L 18.282 113.142 L 18.282 119.672 L 17.132 119.672 L 17.132 113.142 Z M 18.542 111.092 C 18.542 111.199 18.519 111.302 18.472 111.402 C 18.426 111.495 18.366 111.582 18.292 111.662 C 18.219 111.735 18.132 111.792 18.032 111.832 C 17.932 111.879 17.826 111.902 17.712 111.902 C 17.599 111.902 17.496 111.879 17.402 111.832 C 17.302 111.792 17.216 111.735 17.142 111.662 C 17.069 111.582 17.009 111.495 16.962 111.402 C 16.922 111.302 16.902 111.199 16.902 111.092 C 16.902 110.979 16.922 110.872 16.962 110.772 C 17.009 110.665 17.069 110.575 17.142 110.502 C 17.216 110.429 17.302 110.369 17.402 110.322 C 17.496 110.282 17.599 110.262 17.712 110.262 C 17.826 110.262 17.932 110.282 18.032 110.322 C 18.132 110.369 18.219 110.429 18.292 110.502 C 18.366 110.575 18.426 110.665 18.472 110.772 C 18.519 110.872 18.542 110.979 18.542 111.092 ZM 21.453 119.672 L 20.303 119.672 L 20.303 113.142 L 20.993 113.142 C 21.153 113.142 21.257 113.219 21.303 113.372 L 21.393 114.082 C 21.673 113.769 21.99 113.515 22.343 113.322 C 22.69 113.129 23.093 113.032 23.553 113.032 C 23.913 113.032 24.23 113.092 24.503 113.212 C 24.777 113.332 25.003 113.499 25.183 113.712 C 25.37 113.932 25.51 114.195 25.603 114.502 C 25.697 114.809 25.743 115.145 25.743 115.512 L 25.743 119.672 L 24.593 119.672 L 24.593 115.512 C 24.593 115.019 24.48 114.635 24.253 114.362 C 24.027 114.089 23.683 113.952 23.223 113.952 C 22.883 113.952 22.567 114.032 22.273 114.192 C 21.973 114.359 21.7 114.582 21.453 114.862 L 21.453 119.672 ZM 30.063 113.032 C 30.456 113.032 30.816 113.099 31.143 113.232 C 31.476 113.365 31.763 113.555 32.003 113.802 C 32.243 114.049 32.43 114.352 32.563 114.712 C 32.703 115.079 32.773 115.492 32.773 115.952 C 32.773 116.139 32.753 116.262 32.713 116.322 C 32.673 116.382 32.6 116.412 32.493 116.412 L 28.143 116.412 C 28.156 116.825 28.213 117.182 28.313 117.482 C 28.42 117.789 28.563 118.045 28.743 118.252 C 28.923 118.452 29.136 118.605 29.383 118.712 C 29.636 118.812 29.916 118.862 30.223 118.862 C 30.51 118.862 30.756 118.829 30.963 118.762 C 31.176 118.695 31.356 118.622 31.503 118.542 C 31.656 118.469 31.783 118.399 31.883 118.332 C 31.983 118.265 32.07 118.232 32.143 118.232 C 32.236 118.232 32.31 118.265 32.363 118.332 L 32.683 118.752 C 32.543 118.925 32.373 119.075 32.173 119.202 C 31.98 119.329 31.77 119.435 31.543 119.522 C 31.316 119.602 31.083 119.662 30.843 119.702 C 30.603 119.742 30.363 119.762 30.123 119.762 C 29.676 119.762 29.26 119.685 28.873 119.532 C 28.493 119.379 28.166 119.155 27.893 118.862 C 27.613 118.569 27.396 118.205 27.243 117.772 C 27.09 117.339 27.013 116.839 27.013 116.272 C 27.013 115.819 27.083 115.392 27.223 114.992 C 27.363 114.599 27.563 114.255 27.823 113.962 C 28.083 113.675 28.403 113.449 28.783 113.282 C 29.163 113.115 29.59 113.032 30.063 113.032 Z M 30.083 113.882 C 29.53 113.882 29.093 114.042 28.773 114.362 C 28.46 114.682 28.263 115.125 28.183 115.692 L 31.743 115.692 C 31.743 115.425 31.706 115.182 31.633 114.962 C 31.56 114.742 31.45 114.549 31.303 114.382 C 31.163 114.222 30.99 114.099 30.783 114.012 C 30.583 113.925 30.35 113.882 30.083 113.882 ZM 37.989 119.672 L 35.869 113.142 L 36.769 113.142 C 36.869 113.142 36.949 113.165 37.009 113.212 C 37.069 113.259 37.109 113.312 37.129 113.372 L 38.379 117.582 C 38.412 117.735 38.445 117.885 38.479 118.032 C 38.505 118.172 38.529 118.315 38.549 118.462 C 38.589 118.315 38.629 118.172 38.669 118.032 C 38.709 117.885 38.755 117.735 38.809 117.582 L 40.189 113.352 C 40.209 113.285 40.245 113.232 40.299 113.192 C 40.352 113.145 40.419 113.122 40.499 113.122 L 40.999 113.122 C 41.085 113.122 41.155 113.145 41.209 113.192 C 41.262 113.232 41.302 113.285 41.329 113.352 L 42.679 117.582 C 42.725 117.735 42.765 117.885 42.799 118.032 C 42.839 118.172 42.875 118.315 42.909 118.462 C 42.929 118.315 42.955 118.165 42.989 118.012 C 43.022 117.859 43.059 117.715 43.099 117.582 L 44.379 113.372 C 44.399 113.305 44.439 113.249 44.499 113.202 C 44.559 113.162 44.629 113.142 44.709 113.142 L 45.579 113.142 L 43.459 119.672 L 42.549 119.672 C 42.435 119.672 42.359 119.599 42.319 119.452 L 40.879 115.022 C 40.839 114.922 40.809 114.822 40.789 114.722 C 40.769 114.622 40.749 114.522 40.729 114.422 C 40.702 114.522 40.679 114.622 40.659 114.722 C 40.639 114.829 40.612 114.932 40.579 115.032 L 39.109 119.452 C 39.062 119.599 38.975 119.672 38.849 119.672 L 37.989 119.672 ZM 46.446 113.142 L 47.596 113.142 L 47.596 117.302 C 47.596 117.795 47.71 118.179 47.936 118.452 C 48.163 118.725 48.506 118.862 48.966 118.862 C 49.3 118.862 49.616 118.782 49.916 118.622 C 50.21 118.462 50.483 118.239 50.736 117.952 L 50.736 113.142 L 51.876 113.142 L 51.876 119.672 L 51.196 119.672 C 51.036 119.672 50.933 119.592 50.886 119.432 L 50.796 118.732 C 50.51 119.045 50.193 119.299 49.846 119.492 C 49.493 119.679 49.086 119.772 48.626 119.772 C 48.273 119.772 47.96 119.715 47.686 119.602 C 47.413 119.482 47.183 119.315 46.996 119.102 C 46.81 118.882 46.673 118.622 46.586 118.322 C 46.493 118.015 46.446 117.675 46.446 117.302 L 46.446 113.142 ZM 54.916 119.672 L 53.766 119.672 L 53.766 113.142 L 54.456 113.142 C 54.616 113.142 54.719 113.219 54.766 113.372 L 54.856 114.082 C 55.136 113.769 55.453 113.515 55.806 113.322 C 56.153 113.129 56.556 113.032 57.016 113.032 C 57.376 113.032 57.693 113.092 57.966 113.212 C 58.239 113.332 58.466 113.499 58.646 113.712 C 58.833 113.932 58.973 114.195 59.066 114.502 C 59.159 114.809 59.206 115.145 59.206 115.512 L 59.206 119.672 L 58.056 119.672 L 58.056 115.512 C 58.056 115.019 57.943 114.635 57.716 114.362 C 57.489 114.089 57.146 113.952 56.686 113.952 C 56.346 113.952 56.029 114.032 55.736 114.192 C 55.436 114.359 55.163 114.582 54.916 114.862 L 54.916 119.672 ZM 64.936 113.792 L 64.676 114.212 C 64.629 114.312 64.549 114.362 64.436 114.362 C 64.376 114.362 64.302 114.335 64.216 114.282 C 64.136 114.235 64.036 114.185 63.916 114.132 C 63.802 114.072 63.662 114.015 63.496 113.962 C 63.336 113.915 63.142 113.892 62.916 113.892 C 62.722 113.892 62.549 113.915 62.396 113.962 C 62.242 114.015 62.109 114.085 61.996 114.172 C 61.889 114.259 61.806 114.359 61.746 114.472 C 61.686 114.585 61.656 114.709 61.656 114.842 C 61.656 115.009 61.706 115.149 61.806 115.262 C 61.899 115.375 62.026 115.472 62.186 115.552 C 62.346 115.632 62.526 115.702 62.726 115.762 C 62.932 115.829 63.142 115.895 63.356 115.962 C 63.569 116.035 63.776 116.115 63.976 116.202 C 64.176 116.289 64.356 116.395 64.516 116.522 C 64.676 116.655 64.806 116.815 64.906 117.002 C 64.999 117.189 65.046 117.412 65.046 117.672 C 65.046 117.972 64.992 118.252 64.886 118.512 C 64.779 118.765 64.619 118.985 64.406 119.172 C 64.199 119.359 63.942 119.505 63.636 119.612 C 63.329 119.719 62.976 119.772 62.576 119.772 C 62.122 119.772 61.709 119.699 61.336 119.552 C 60.969 119.405 60.656 119.215 60.396 118.982 L 60.666 118.542 C 60.699 118.489 60.739 118.445 60.786 118.412 C 60.832 118.385 60.896 118.372 60.976 118.372 C 61.056 118.372 61.139 118.402 61.226 118.462 C 61.306 118.522 61.409 118.589 61.536 118.662 C 61.656 118.735 61.802 118.802 61.976 118.862 C 62.149 118.922 62.369 118.952 62.636 118.952 C 62.856 118.952 63.052 118.922 63.226 118.862 C 63.392 118.802 63.529 118.725 63.636 118.632 C 63.749 118.532 63.832 118.415 63.886 118.282 C 63.939 118.155 63.966 118.019 63.966 117.872 C 63.966 117.692 63.919 117.542 63.826 117.422 C 63.726 117.302 63.596 117.202 63.436 117.122 C 63.282 117.035 63.102 116.962 62.896 116.902 C 62.689 116.842 62.479 116.775 62.266 116.702 C 62.052 116.635 61.846 116.559 61.646 116.472 C 61.439 116.385 61.256 116.275 61.096 116.142 C 60.936 116.009 60.809 115.842 60.716 115.642 C 60.616 115.449 60.566 115.212 60.566 114.932 C 60.566 114.685 60.619 114.445 60.726 114.212 C 60.826 113.985 60.976 113.782 61.176 113.602 C 61.376 113.429 61.619 113.292 61.906 113.192 C 62.192 113.085 62.522 113.032 62.896 113.032 C 63.322 113.032 63.706 113.102 64.046 113.242 C 64.392 113.375 64.689 113.559 64.936 113.792 ZM 71.292 113.882 L 70.992 114.302 C 70.959 114.349 70.925 114.385 70.892 114.412 C 70.852 114.439 70.802 114.452 70.742 114.452 C 70.675 114.452 70.605 114.422 70.532 114.362 C 70.452 114.309 70.355 114.252 70.242 114.192 C 70.129 114.125 69.989 114.065 69.822 114.012 C 69.655 113.959 69.452 113.932 69.212 113.932 C 68.892 113.932 68.609 113.989 68.362 114.102 C 68.122 114.215 67.919 114.379 67.752 114.592 C 67.585 114.812 67.459 115.072 67.372 115.372 C 67.292 115.679 67.252 116.022 67.252 116.402 C 67.252 116.795 67.295 117.145 67.382 117.452 C 67.475 117.765 67.602 118.025 67.762 118.232 C 67.929 118.439 68.129 118.599 68.362 118.712 C 68.595 118.819 68.859 118.872 69.152 118.872 C 69.432 118.872 69.662 118.839 69.842 118.772 C 70.022 118.705 70.172 118.632 70.292 118.552 C 70.412 118.472 70.512 118.399 70.592 118.332 C 70.665 118.265 70.742 118.232 70.822 118.232 C 70.922 118.232 70.995 118.265 71.042 118.332 L 71.362 118.752 C 71.082 119.105 70.729 119.362 70.302 119.522 C 69.875 119.682 69.425 119.762 68.952 119.762 C 68.545 119.762 68.165 119.685 67.812 119.532 C 67.465 119.385 67.162 119.169 66.902 118.882 C 66.642 118.595 66.439 118.245 66.292 117.832 C 66.145 117.412 66.072 116.935 66.072 116.402 C 66.072 115.915 66.139 115.465 66.272 115.052 C 66.405 114.639 66.602 114.282 66.862 113.982 C 67.122 113.689 67.445 113.455 67.832 113.282 C 68.212 113.115 68.649 113.032 69.142 113.032 C 69.602 113.032 70.009 113.109 70.362 113.262 C 70.715 113.409 71.025 113.615 71.292 113.882 ZM 73.704 119.672 L 72.554 119.672 L 72.554 110.172 L 73.704 110.172 L 73.704 114.012 C 73.984 113.719 74.294 113.482 74.634 113.302 C 74.974 113.122 75.364 113.032 75.804 113.032 C 76.164 113.032 76.481 113.092 76.754 113.212 C 77.027 113.332 77.254 113.499 77.434 113.712 C 77.621 113.932 77.761 114.195 77.854 114.502 C 77.947 114.809 77.994 115.145 77.994 115.512 L 77.994 119.672 L 76.844 119.672 L 76.844 115.512 C 76.844 115.019 76.731 114.635 76.504 114.362 C 76.277 114.089 75.934 113.952 75.474 113.952 C 75.134 113.952 74.817 114.032 74.524 114.192 C 74.224 114.359 73.951 114.582 73.704 114.862 L 73.704 119.672 ZM 79.854 110.172 L 81.004 110.172 L 81.004 119.672 L 79.854 119.672 L 79.854 110.172 ZM 83.155 113.142 L 84.305 113.142 L 84.305 119.672 L 83.155 119.672 L 83.155 113.142 Z M 84.565 111.092 C 84.565 111.199 84.542 111.302 84.495 111.402 C 84.448 111.495 84.388 111.582 84.315 111.662 C 84.242 111.735 84.155 111.792 84.055 111.832 C 83.955 111.879 83.848 111.902 83.735 111.902 C 83.622 111.902 83.518 111.879 83.425 111.832 C 83.325 111.792 83.238 111.735 83.165 111.662 C 83.092 111.582 83.032 111.495 82.985 111.402 C 82.945 111.302 82.925 111.199 82.925 111.092 C 82.925 110.979 82.945 110.872 82.985 110.772 C 83.032 110.665 83.092 110.575 83.165 110.502 C 83.238 110.429 83.325 110.369 83.425 110.322 C 83.518 110.282 83.622 110.262 83.735 110.262 C 83.848 110.262 83.955 110.282 84.055 110.322 C 84.155 110.369 84.242 110.429 84.315 110.502 C 84.388 110.575 84.448 110.665 84.495 110.772 C 84.542 110.872 84.565 110.979 84.565 111.092 ZM 90.326 113.792 L 90.066 114.212 C 90.019 114.312 89.939 114.362 89.826 114.362 C 89.766 114.362 89.693 114.335 89.606 114.282 C 89.526 114.235 89.426 114.185 89.306 114.132 C 89.193 114.072 89.053 114.015 88.886 113.962 C 88.726 113.915 88.533 113.892 88.306 113.892 C 88.113 113.892 87.939 113.915 87.786 113.962 C 87.633 114.015 87.499 114.085 87.386 114.172 C 87.279 114.259 87.196 114.359 87.136 114.472 C 87.076 114.585 87.046 114.709 87.046 114.842 C 87.046 115.009 87.096 115.149 87.196 115.262 C 87.289 115.375 87.416 115.472 87.576 115.552 C 87.736 115.632 87.916 115.702 88.116 115.762 C 88.323 115.829 88.533 115.895 88.746 115.962 C 88.959 116.035 89.166 116.115 89.366 116.202 C 89.566 116.289 89.746 116.395 89.906 116.522 C 90.066 116.655 90.196 116.815 90.296 117.002 C 90.389 117.189 90.436 117.412 90.436 117.672 C 90.436 117.972 90.383 118.252 90.276 118.512 C 90.169 118.765 90.009 118.985 89.796 119.172 C 89.589 119.359 89.333 119.505 89.026 119.612 C 88.719 119.719 88.366 119.772 87.966 119.772 C 87.513 119.772 87.099 119.699 86.726 119.552 C 86.359 119.405 86.046 119.215 85.786 118.982 L 86.056 118.542 C 86.089 118.489 86.129 118.445 86.176 118.412 C 86.223 118.385 86.286 118.372 86.366 118.372 C 86.446 118.372 86.529 118.402 86.616 118.462 C 86.696 118.522 86.799 118.589 86.926 118.662 C 87.046 118.735 87.193 118.802 87.366 118.862 C 87.539 118.922 87.759 118.952 88.026 118.952 C 88.246 118.952 88.443 118.922 88.616 118.862 C 88.783 118.802 88.919 118.725 89.026 118.632 C 89.139 118.532 89.223 118.415 89.276 118.282 C 89.329 118.155 89.356 118.019 89.356 117.872 C 89.356 117.692 89.309 117.542 89.216 117.422 C 89.116 117.302 88.986 117.202 88.826 117.122 C 88.673 117.035 88.493 116.962 88.286 116.902 C 88.079 116.842 87.869 116.775 87.656 116.702 C 87.443 116.635 87.236 116.559 87.036 116.472 C 86.829 116.385 86.646 116.275 86.486 116.142 C 86.326 116.009 86.199 115.842 86.106 115.642 C 86.006 115.449 85.956 115.212 85.956 114.932 C 85.956 114.685 86.009 114.445 86.116 114.212 C 86.216 113.985 86.366 113.782 86.566 113.602 C 86.766 113.429 87.009 113.292 87.296 113.192 C 87.583 113.085 87.913 113.032 88.286 113.032 C 88.713 113.032 89.096 113.102 89.436 113.242 C 89.783 113.375 90.079 113.559 90.326 113.792 ZM 93.902 119.772 C 93.389 119.772 92.992 119.629 92.712 119.342 C 92.439 119.055 92.302 118.642 92.302 118.102 L 92.302 114.102 L 91.512 114.102 C 91.446 114.102 91.386 114.082 91.332 114.042 C 91.286 113.995 91.262 113.932 91.262 113.852 L 91.262 113.392 L 92.332 113.252 L 92.602 111.232 C 92.609 111.172 92.636 111.122 92.682 111.082 C 92.729 111.035 92.789 111.012 92.862 111.012 L 93.442 111.012 L 93.442 113.272 L 95.312 113.272 L 95.312 114.102 L 93.442 114.102 L 93.442 118.022 C 93.442 118.295 93.509 118.499 93.642 118.632 C 93.776 118.765 93.949 118.832 94.162 118.832 C 94.282 118.832 94.386 118.815 94.472 118.782 C 94.559 118.749 94.636 118.715 94.702 118.682 C 94.769 118.642 94.826 118.605 94.872 118.572 C 94.912 118.539 94.952 118.522 94.992 118.522 C 95.052 118.522 95.106 118.559 95.152 118.632 L 95.482 119.182 C 95.289 119.369 95.052 119.515 94.772 119.622 C 94.492 119.722 94.202 119.772 93.902 119.772 ZM 99.322 113.032 C 99.716 113.032 100.076 113.099 100.402 113.232 C 100.736 113.365 101.022 113.555 101.262 113.802 C 101.502 114.049 101.689 114.352 101.822 114.712 C 101.962 115.079 102.032 115.492 102.032 115.952 C 102.032 116.139 102.012 116.262 101.972 116.322 C 101.932 116.382 101.859 116.412 101.752 116.412 L 97.402 116.412 C 97.416 116.825 97.472 117.182 97.572 117.482 C 97.679 117.789 97.822 118.045 98.002 118.252 C 98.182 118.452 98.396 118.605 98.642 118.712 C 98.896 118.812 99.176 118.862 99.482 118.862 C 99.769 118.862 100.016 118.829 100.222 118.762 C 100.436 118.695 100.616 118.622 100.762 118.542 C 100.916 118.469 101.042 118.399 101.142 118.332 C 101.242 118.265 101.329 118.232 101.402 118.232 C 101.496 118.232 101.569 118.265 101.622 118.332 L 101.942 118.752 C 101.802 118.925 101.632 119.075 101.432 119.202 C 101.239 119.329 101.029 119.435 100.802 119.522 C 100.576 119.602 100.342 119.662 100.102 119.702 C 99.862 119.742 99.622 119.762 99.382 119.762 C 98.936 119.762 98.519 119.685 98.132 119.532 C 97.752 119.379 97.426 119.155 97.152 118.862 C 96.872 118.569 96.656 118.205 96.502 117.772 C 96.349 117.339 96.272 116.839 96.272 116.272 C 96.272 115.819 96.342 115.392 96.482 114.992 C 96.622 114.599 96.822 114.255 97.082 113.962 C 97.342 113.675 97.662 113.449 98.042 113.282 C 98.422 113.115 98.849 113.032 99.322 113.032 Z M 99.342 113.882 C 98.789 113.882 98.352 114.042 98.032 114.362 C 97.719 114.682 97.522 115.125 97.442 115.692 L 101.002 115.692 C 101.002 115.425 100.966 115.182 100.892 114.962 C 100.819 114.742 100.709 114.549 100.562 114.382 C 100.422 114.222 100.249 114.099 100.042 114.012 C 99.842 113.925 99.609 113.882 99.342 113.882 ZM 104.639 119.672 L 103.489 119.672 L 103.489 113.142 L 104.179 113.142 C 104.339 113.142 104.443 113.219 104.489 113.372 L 104.579 114.082 C 104.859 113.769 105.176 113.515 105.529 113.322 C 105.876 113.129 106.279 113.032 106.739 113.032 C 107.099 113.032 107.416 113.092 107.689 113.212 C 107.963 113.332 108.189 113.499 108.369 113.712 C 108.556 113.932 108.696 114.195 108.789 114.502 C 108.883 114.809 108.929 115.145 108.929 115.512 L 108.929 119.672 L 107.779 119.672 L 107.779 115.512 C 107.779 115.019 107.666 114.635 107.439 114.362 C 107.213 114.089 106.869 113.952 106.409 113.952 C 106.069 113.952 105.753 114.032 105.459 114.192 C 105.159 114.359 104.886 114.582 104.639 114.862 L 104.639 119.672 Z" transform="matrix(1, 0, 0, 1, 0, 0)" style="fill: rgb(51, 51, 51); white-space: pre;"/>
</svg>