<svg xmlns="http://www.w3.org/2000/svg" viewBox="0 0 306.7 510.1"><style>.st0{fill:#1d1d1b}.st1{fill:#009ace}</style><g id="Ebene_2"><path class="st0" d="M25.2 380.5h11.7c9.2 0 17 4.6 17 13.7 0 9.7-8.3 14.1-17.6 14.1h-4.8v17h-6.2l-.1-44.8zm6.2 22.6l4.9-.1c4.1 0 11.1-1.5 11.1-8.8 0-7-6.8-8.6-10.4-8.6l-5.6-.1v17.6zM58.6 402.3c0-2.8-.1-5.5-.4-8.1h5.6l.3 8.1h.4c1.1-4 4.5-8.6 9.1-8.6 1.7 0 3 .4 4 .9v5.3c-.9-.4-2.2-.8-3.5-.8-5.9 0-9.2 5.8-9.6 12.4v13.8h-5.9v-23zM95 393.3c10.7 0 15.3 9.4 15.3 16.4 0 8.3-5.4 16.6-15.3 16.6s-15.6-7.9-15.6-16.6c0-7.2 4.8-16.4 15.6-16.4zm-.1 28.6c4.8 0 9.3-3.8 9.3-12.3 0-7.9-4.3-11.9-9.3-11.9-4 0-9.4 2.6-9.4 12 0 6.4 2.9 12.2 9.4 12.2zM113 394.1h5.1l1.1-9.3h4.6v9.3h8.8v4.5h-8.8v17.6c0 2.8 1.4 4.5 4.3 4.5 1.7 0 3.7-.6 4.5-.9v4.6c-1.1.7-3.1 1.6-5.2 1.6-6 0-9.4-3.6-9.4-9.6v-17.6h-5v-4.7zM151.3 393.3c10.7 0 15.3 9.4 15.3 16.4 0 8.3-5.4 16.6-15.3 16.6s-15.6-7.9-15.6-16.6c0-7.2 4.9-16.4 15.6-16.4zm-.1 28.6c4.8 0 9.3-3.8 9.3-12.3 0-7.9-4.3-11.9-9.3-11.9-4 0-9.4 2.6-9.4 12 0 6.4 2.9 12.2 9.4 12.2zM169.4 394.1h5.1l1.1-9.3h4.6v9.3h8.8v4.5h-8.8v17.6c0 2.8 1.4 4.5 4.3 4.5 1.7 0 3.7-.6 4.5-.9v4.6c-1.1.7-3.1 1.6-5.2 1.6-6 0-9.4-3.6-9.4-9.6v-17.6h-5v-4.7zM208 431.5c-1.9 4.8-5 6.3-8.8 6.3-1.3 0-3-.2-4.1-.6v-5c.9.3 2.5.6 3.4.6 2 0 3.2-.7 4.1-2.5.6-1.3 1.6-4 1.9-5 .3-1.4-.6-2.2-1.8-2.1l-11.2-29h6.5l8.7 24.7h.4l7.6-24.7h6.1c-10.6 31.1-11.4 33.4-12.8 37.3zM230.5 437.2h-5.8v-38.5c0-1.3-.1-3.4-.1-4.6h5.5c.1 1.2.1 3.5.1 4.7h.4c2.1-3.2 5.1-5.2 9.2-5.2 8.6 0 13.3 7.6 13.3 16.3 0 9-4.8 16.3-13 16.3-5.6 0-8.3-3.7-9.2-5h-.4s.1 2.2.1 4.2l-.1 11.8zm7.9-39.1c-4.3 0-7.6 4.5-7.9 7.8v7.5c.1 3.4 3.2 8.3 8.1 8.3 5.7 0 8.3-5.4 8.3-11.8 0-7.1-2.8-11.8-8.5-11.8zM261.3 410.5c.1 6.5 3.2 11.2 9.1 11.2 3.8 0 6.7-2.5 7.4-6h5.7c-.7 5.1-5.3 10.5-13.5 10.5-8.7 0-14.6-6.6-14.6-16.8 0-8.7 5.5-16.1 14.2-16.1 11.4 0 14.6 9.9 13.8 17.2h-22.1zm16.4-4.3c.1-3-1.6-8.6-7.9-8.6-4.2 0-7.8 3-8.3 8.7l16.2-.1z"/><g><path class="st0" d="M25.2 439h25v5.3H31.6v14.8h17.6v5.2H31.6v19.5h-6.3l-.1-44.8zM81.7 452.7v25.8c0 1.6.1 3.7.4 5.3h-6c-.1-1.3-.1-3.6-.1-5.4h-.4c-.7 1.3-3.8 5.8-10.1 5.8-4.2 0-10.6-2.3-10.6-11.7v-19.9h6v19.9c0 4.1 1.9 6.9 5.9 6.9 4.2 0 7.9-3.7 8.9-9.1v-17.7h6zM87.5 458c0-1.6-.1-3.5-.3-5.3h6v5.3h.4c.8-1.4 4.2-6 10.1-6 3.7 0 10.3 2 10.3 11.5v20.3h-6v-20.4c0-4.3-1.9-6.8-5.5-6.8-4.3 0-7.9 4-9.1 9.1v18.1h-5.9V458zM140.1 439h5.8v40.2c0 1.3 0 3.4.1 4.6h-5.3c-.1-1.3-.1-3.2-.1-4.6h-.4c-2.1 3.2-5.2 5.1-9.2 5.1-8.7 0-13.5-7.6-13.5-16.3 0-9 4.8-16.3 13-16.3 5.6 0 8.3 3.7 9.2 5h.4s-.1-2.1-.1-4.2l.1-13.5zm-7.8 40.9c4.3 0 7.6-4.5 7.8-7.7v-7.6c-.1-3.4-3.2-8.3-8.1-8.3-5.7 0-8.3 5.4-8.3 11.8.1 7.1 2.9 11.8 8.6 11.8z"/></g><path id="XMLID_19_" class="st1" d="M199.3 28.1l38.3 4.8 45.3 87-45.3 73.1s-51.7 13.5-71.5 18.3H121v117.8l36.5 12.9-.9 12.6-64.9-.9-65.1.9-1.4-12.6L62 329.1V53.3L25.2 40.6 26.6 28l172.7.1zM121 186.2l37.7 7.2 58.2-40.6 18-32.9-18-33.1-58.2-38.4-37.7 5v132.8z"/></g></svg>