<svg xmlns="http://www.w3.org/2000/svg" viewBox="0 0 1019.1 589.57501" height="589.575" width="1019.1"><path d="M623.624 213.026c0 13.25-10.747 23.993-23.998 23.993h-189.03c-13.253 0-23.998-10.743-23.998-23.993V23.995c0-13.256 10.745-23.997 23.998-23.997h189.03c13.252 0 23.998 10.74 23.998 23.997v189.031" fill="#639f1e"/><path d="M513.489 206.614V124.63c0-16.522 2.431-30.393 7.303-41.615 4.877-11.236 11.547-20.237 20.023-27.02 8.044-6.353 17.471-11.013 28.27-13.977 10.809-2.968 21.93-4.453 33.374-4.453H608.813v45.122h-14.62c-12.293 0-21.397 2.968-27.327 8.898-5.932 5.932-8.898 15.25-8.898 27.962v87.066h-44.48M453.399 206.614v-87.066c0-12.712-2.965-22.03-8.9-27.962-5.93-5.93-15.031-8.898-27.326-8.898H402.55V37.566h6.355c11.446 0 22.57 1.485 33.375 4.453 10.8 2.964 20.227 7.624 28.274 13.977 8.475 6.783 15.15 15.784 20.02 27.02 4.868 11.222 7.308 25.093 7.308 41.615v81.983H453.4" fill="#fff"/><path d="M34.844 388.473H80.78c8.816 0 15.469-.803 19.956-2.414 4.488-1.609 7.598-4.631 9.331-9.07 1.731-4.436 2.598-11.131 2.598-20.081 0-8.872-.75-15.372-2.244-19.494-1.496-4.121-4.253-6.929-8.266-8.421-4.016-1.492-10.354-2.24-19.014-2.24H34.844v61.72zm53.379 29.843h-53.38v60H0V296.91h92.585c10.157.238 18.719 1.319 25.687 3.248 6.967 1.928 12.555 4.877 16.77 8.852 4.21 3.975 7.34 9.446 9.387 16.409 2.046 6.965 3.071 15.602 3.071 25.912 0 10.94-.61 19.598-1.831 25.973-1.22 6.374-4.173 11.784-8.855 16.23-4.685 4.449-11.829 7.377-21.43 8.794v.947c11.883 1.025 19.972 4.746 24.265 11.168 4.288 6.42 6.435 16.408 6.435 29.957v33.916H111.25V444.42c0-17.165-7.676-25.866-23.027-26.104M209.468 388.473h45.937c8.815 0 15.469-.803 19.956-2.414 4.486-1.609 7.598-4.631 9.33-9.07 1.731-4.436 2.599-11.131 2.599-20.081 0-8.872-.75-15.372-2.244-19.494-1.497-4.121-4.254-6.929-8.267-8.421-4.016-1.492-10.354-2.24-19.014-2.24h-48.297v61.72zm53.378 29.843h-53.379v60h-34.843V296.91h92.585c10.156.238 18.719 1.319 25.686 3.248 6.968 1.928 12.556 4.877 16.77 8.852 4.211 3.975 7.341 9.446 9.387 16.409 2.045 6.965 3.072 15.602 3.072 25.912 0 10.94-.612 19.598-1.832 25.973-1.22 6.374-4.172 11.784-8.855 16.23-4.685 4.449-11.828 7.377-21.43 8.794v.947c11.884 1.025 19.973 4.746 24.264 11.168 4.29 6.42 6.436 16.408 6.436 29.957v33.916h-34.833V444.42c0-17.165-7.677-25.866-23.028-26.104" fill="#639f1e"/><path d="M384.871 399.254v49.219h47.518c8.095 0 14.186-.45 18.273-1.353 4.087-.902 7.193-3.041 9.317-6.419 2.121-3.373 3.184-8.673 3.184-15.895 0-6.828-.67-12.028-2.006-15.601-1.337-3.571-3.735-6.122-7.192-7.654-3.459-1.53-8.686-2.297-15.681-2.297H384.87zm0-72.5v46.094h49.978c6.444 0 11.395-.764 14.851-2.298 3.458-1.532 5.835-4.086 7.131-7.662 1.296-3.575 1.946-8.704 1.946-15.387 0-6.286-.844-10.903-2.533-13.85-1.69-2.947-4.185-4.834-7.486-5.659-3.3-.826-8.252-1.238-14.852-1.238h-49.035zm58.566 151.562h-93.41V296.91h90.213c12.674 0 22.828 1.221 30.464 3.663 7.636 2.44 13.384 7.07 17.241 13.88 3.857 6.816 5.786 16.678 5.786 29.593 0 7.487-.671 13.845-2.014 19.083-1.343 5.236-3.91 9.626-7.703 13.171-3.792 3.545-9.24 6.181-16.35 7.915v1.068c8.135.943 14.436 3.266 18.898 6.965 4.464 3.7 7.484 8.48 9.063 14.345 1.58 5.865 2.371 12.93 2.371 21.19 0 9.92-1.065 18.185-3.189 24.796-2.126 6.611-5.353 11.749-9.685 15.409-4.33 3.658-9.938 6.296-16.828 7.91-6.889 1.613-15.173 2.418-24.857 2.418M593.641 325.348c-9.522 0-16.995.57-22.422 1.71-5.43 1.142-9.48 3.01-12.157 5.602-2.675 2.595-4.483 6.074-5.426 10.436-.945 4.364-1.536 10.594-1.77 18.693v48.82c0 9.2.569 16.355 1.712 21.465 1.14 5.11 3.146 8.942 6.017 11.496 2.871 2.556 6.941 4.246 12.213 5.071 5.27.825 12.548 1.238 21.833 1.238 11.484 0 20.139-.884 25.962-2.654 5.82-1.768 10.048-5.425 12.686-10.966 2.633-5.543 3.952-14.093 3.952-25.65v-48.82c0-8.491-.827-15.213-2.479-20.166-1.652-4.952-4.09-8.57-7.316-10.85-3.227-2.28-7.317-3.753-12.274-4.422-4.955-.669-11.8-1.004-20.53-1.004zm.058-29.844c14.492 0 26.326.789 35.504 2.364 9.175 1.575 16.875 4.585 23.097 9.032 6.221 4.449 10.909 11.099 14.057 19.956 3.15 8.858 4.728 20.492 4.728 34.895v48.89c0 18.974-2.581 33.44-7.74 43.398-5.159 9.959-13.174 16.728-24.043 20.31-10.868 3.585-26.072 5.374-45.603 5.374-15.124 0-27.353-.887-36.687-2.657-9.333-1.772-16.953-5.058-22.86-9.86-5.91-4.802-10.24-11.712-12.997-20.725-2.756-9.013-4.133-20.96-4.133-35.84v-48.89c0-14.247 1.318-25.663 3.958-34.245 2.636-8.578 6.85-15.192 12.641-19.838 5.789-4.644 13.369-7.833 22.741-9.567 9.373-1.73 21.82-2.597 37.337-2.597M832.44 448.564l-2.833-151.654h34.798v181.406h-57.797L729.58 326.718h-1.18l2.833 151.598h-34.798V296.91H754l77.495 151.654h.945M928.945 326.754v45.156h84.724v28.594h-84.724v47.969h90.154v29.843H894.1V296.91h124.17v29.844h-89.326M159.407 550.747c-.582-3.762-1.837-6.565-3.762-8.408-1.925-1.843-4.346-2.764-7.263-2.764-1.36 0-2.633.224-3.82.668a9.415 9.415 0 0 0-3.208 2.038c-.954.913-1.76 2.075-2.421 3.491-.662 1.417-1.128 3.074-1.4 4.975h21.875zm-10.236 24.063c-2.822 0-5.394-.456-7.712-1.362-2.319-.91-4.31-2.225-5.973-3.946-1.662-1.721-2.949-3.838-3.856-6.352-.909-2.512-1.363-5.394-1.363-8.644 0-3.17.444-6.011 1.334-8.526.89-2.514 2.138-4.64 3.744-6.38a15.931 15.931 0 0 1 5.716-3.974c2.204-.908 4.643-1.363 7.311-1.363 2.787 0 5.3.453 7.544 1.36 2.244.907 4.16 2.218 5.746 3.934 1.587 1.717 2.804 3.83 3.657 6.338.851 2.508 1.276 5.363 1.276 8.564v1.679h-29.219c.155 2.302.564 4.29 1.223 5.968.659 1.677 1.511 3.063 2.559 4.154a9.56 9.56 0 0 0 3.635 2.398c1.377.508 2.84.76 4.392.76 1.163 0 2.306-.144 3.433-.436a9.687 9.687 0 0 0 3.025-1.34 7.509 7.509 0 0 0 2.18-2.245c.562-.893.882-1.922.96-3.087h7.03c-.27 2.045-.89 3.849-1.855 5.411a13.317 13.317 0 0 1-3.653 3.906c-1.47 1.043-3.16 1.834-5.074 2.373-1.915.539-3.933.81-6.06.81M206.036 573.872h-8.524l-9.58-15.148-9.638 15.148h-8.523l14.304-20.14-13.19-18.688h8.581l8.466 13.58 8.41-13.58h8.58l-13.19 18.574 14.304 20.254M227.37 574.81c-2.669 0-5.114-.436-7.336-1.305a15.436 15.436 0 0 1-5.741-3.887c-1.604-1.722-2.842-3.838-3.712-6.352-.87-2.514-1.305-5.432-1.305-8.76 0-3.285.435-6.196 1.305-8.728.87-2.533 2.108-4.652 3.711-6.353a15.596 15.596 0 0 1 5.742-3.857c2.222-.87 4.667-1.305 7.336-1.305 2.203 0 4.213.292 6.03.872 1.816.581 3.402 1.405 4.755 2.471a12.374 12.374 0 0 1 3.276 3.925c.831 1.55 1.364 3.294 1.595 5.232h-7.031c-.077-1.168-.36-2.202-.845-3.097a7.105 7.105 0 0 0-1.895-2.25c-.777-.604-1.681-1.061-2.711-1.374a10.938 10.938 0 0 0-3.178-.467c-1.672 0-3.189.33-4.549.989-1.358.658-2.526 1.62-3.497 2.88-.973 1.26-1.73 2.822-2.275 4.683-.544 1.862-.815 3.994-.815 6.4 0 4.848 1.001 8.542 3.002 11.082 2.003 2.54 4.714 3.81 8.134 3.81 1.088 0 2.148-.136 3.178-.408 1.03-.271 1.933-.699 2.711-1.281a6.78 6.78 0 0 0 1.895-2.215c.485-.894.767-1.962.845-3.205h7.031c-.231 2.045-.792 3.848-1.681 5.411a12.577 12.577 0 0 1-3.423 3.906c-1.39 1.043-2.986 1.834-4.783 2.373-1.798.539-3.72.81-5.769.81M275.806 550.747c-.584-3.762-1.839-6.565-3.764-8.408-1.925-1.843-4.345-2.764-7.26-2.764-1.362 0-2.636.224-3.822.668a9.403 9.403 0 0 0-3.208 2.038c-.953.913-1.76 2.075-2.42 3.491-.662 1.417-1.128 3.074-1.4 4.975h21.874zM265.57 574.81c-2.822 0-5.394-.456-7.713-1.362-2.32-.91-4.31-2.225-5.973-3.946-1.663-1.721-2.948-3.838-3.856-6.352-.908-2.512-1.362-5.394-1.362-8.644 0-3.17.444-6.011 1.334-8.526.89-2.514 2.138-4.64 3.744-6.38a15.927 15.927 0 0 1 5.715-3.974c2.205-.908 4.642-1.363 7.312-1.363 2.785 0 5.3.453 7.544 1.36 2.244.907 4.159 2.218 5.746 3.934 1.585 1.717 2.804 3.83 3.656 6.338.85 2.508 1.277 5.363 1.277 8.564v1.679h-29.219c.155 2.302.562 4.29 1.222 5.968.66 1.677 1.512 3.063 2.558 4.154a9.565 9.565 0 0 0 3.636 2.398c1.376.508 2.84.76 4.391.76 1.164 0 2.308-.144 3.433-.436a9.674 9.674 0 0 0 3.025-1.34 7.509 7.509 0 0 0 2.181-2.245c.563-.893.883-1.922.96-3.087h7.031c-.27 2.045-.89 3.849-1.856 5.411a13.333 13.333 0 0 1-3.652 3.906c-1.47 1.043-3.162 1.834-5.075 2.373-1.914.539-3.933.81-6.059.81M297.582 573.872h-6.952v-53.516h6.952v53.516M314.625 573.872h-6.952v-53.516h6.952v53.516M331.668 573.872h-6.954v-38.828h6.954v38.828zm0-46.172h-6.954v-7.344h6.954v7.344M348.866 539.966c3.389-3.801 7.221-5.703 11.496-5.703 8.743 0 13.114 4.736 13.114 14.207v25.402h-6.954v-25.111c0-3.177-.557-5.463-1.673-6.86-1.115-1.393-2.963-2.091-5.538-2.091-3.501 0-6.982 2.074-10.445 6.219v27.843h-6.952v-38.828h6.952v4.922M407.988 562.781v-18.518c-3.024-3.125-6.435-4.688-10.234-4.688-2.945 0-5.31 1.261-7.093 3.782-1.782 2.52-2.673 6.34-2.673 11.46 0 4.848.84 8.493 2.528 10.937 1.687 2.444 4.002 3.665 6.948 3.665 3.799 0 7.305-2.212 10.524-6.638zm6.875 8.056c0 12.492-5.627 18.738-16.88 18.738-2.436 0-4.622-.28-6.554-.841-1.934-.561-3.589-1.344-4.96-2.35-1.373-1.005-2.426-2.234-3.161-3.684-.734-1.45-1.102-3.065-1.102-4.844h7.109c0 4.27 2.85 6.406 8.551 6.406 1.511 0 2.898-.182 4.158-.547a6.824 6.824 0 0 0 3.2-1.994c.872-.963 1.551-2.291 2.036-3.986.484-1.694.728-3.869.728-6.526v-1.906c-3.093 3.672-6.783 5.507-11.072 5.507-2.512 0-4.745-.465-6.695-1.393a13.974 13.974 0 0 1-4.986-3.972c-1.371-1.721-2.414-3.819-3.129-6.295-.716-2.475-1.072-5.26-1.072-8.352 0-3.172.405-6.024 1.217-8.557.81-2.532 1.941-4.689 3.391-6.469 1.45-1.778 3.17-3.14 5.16-4.088 1.988-.948 4.18-1.422 6.577-1.422 4.211 0 7.748 1.278 10.608 3.83v-3.048h6.875v35.793M475.539 550.747c-.584-3.762-1.839-6.565-3.764-8.408-1.925-1.843-4.346-2.764-7.263-2.764-1.36 0-2.633.224-3.82.668a9.408 9.408 0 0 0-3.208 2.038c-.953.913-1.76 2.075-2.42 3.491-.663 1.417-1.129 3.074-1.4 4.975h21.875zM465.3 574.81c-2.822 0-5.392-.456-7.712-1.362-2.319-.91-4.31-2.225-5.973-3.946-1.662-1.721-2.947-3.838-3.856-6.352-.909-2.512-1.363-5.394-1.363-8.644 0-3.17.445-6.011 1.335-8.526.89-2.514 2.138-4.64 3.744-6.38a15.916 15.916 0 0 1 5.715-3.974c2.205-.908 4.643-1.363 7.313-1.363 2.785 0 5.3.453 7.543 1.36 2.244.907 4.16 2.218 5.745 3.934 1.587 1.717 2.805 3.83 3.657 6.338.851 2.508 1.277 5.363 1.277 8.564v1.679h-29.219c.155 2.302.563 4.29 1.222 5.968.66 1.677 1.511 3.063 2.558 4.154a9.57 9.57 0 0 0 3.635 2.398c1.378.508 2.842.76 4.393.76 1.164 0 2.307-.144 3.432-.436a9.687 9.687 0 0 0 3.025-1.34 7.509 7.509 0 0 0 2.182-2.245c.561-.893.881-1.922.96-3.087h7.031c-.271 2.045-.89 3.849-1.858 5.411a13.317 13.317 0 0 1-3.652 3.906c-1.469 1.043-3.16 1.834-5.074 2.373-1.914.539-3.934.81-6.06.81M522.166 573.872h-8.522l-9.582-15.148-9.637 15.148h-8.524l14.305-20.14-13.191-18.688h8.581l8.466 13.58 8.41-13.58h8.58l-13.19 18.574 14.304 20.254M534.86 564.731c2.89 3.125 6.261 4.688 10.114 4.688 3.005 0 5.365-1.26 7.08-3.78 1.714-2.521 2.572-6.343 2.572-11.461 0-4.848-.81-8.493-2.428-10.937-1.62-2.443-3.93-3.666-6.935-3.666-3.777 0-7.243 2.232-10.403 6.697v18.46zm0-25.077c3.044-3.594 6.723-5.391 11.039-5.391 2.505 0 4.739.473 6.705 1.42a13.905 13.905 0 0 1 4.97 4.003c1.347 1.722 2.379 3.81 3.092 6.267.713 2.456 1.069 5.19 1.069 8.206 0 3.132-.405 5.975-1.214 8.527-.81 2.553-1.946 4.729-3.41 6.527-1.465 1.798-3.198 3.18-5.201 4.146-2.005.967-4.181 1.45-6.531 1.45-4.161 0-7.668-1.3-10.519-3.905v17.89h-6.952v-53.75h6.952v4.61M596.168 550.747c-.584-3.762-1.84-6.565-3.764-8.408-1.925-1.843-4.345-2.764-7.261-2.764-1.362 0-2.635.224-3.822.668a9.403 9.403 0 0 0-3.207 2.038c-.954.913-1.76 2.075-2.421 3.491-.662 1.417-1.128 3.074-1.4 4.975h21.875zM585.93 574.81c-2.822 0-5.394-.456-7.712-1.362-2.32-.91-4.312-2.225-5.974-3.946-1.663-1.721-2.947-3.838-3.856-6.352-.908-2.512-1.362-5.394-1.362-8.644 0-3.17.444-6.011 1.334-8.526.89-2.514 2.138-4.64 3.744-6.38a15.927 15.927 0 0 1 5.715-3.974c2.205-.908 4.642-1.363 7.312-1.363 2.785 0 5.3.453 7.544 1.36 2.244.907 4.159 2.218 5.746 3.934 1.585 1.717 2.804 3.83 3.657 6.338.85 2.508 1.276 5.363 1.276 8.564v1.679h-29.219c.155 2.302.563 4.29 1.223 5.968.658 1.677 1.511 3.063 2.557 4.154a9.565 9.565 0 0 0 3.636 2.398c1.377.508 2.84.76 4.392.76 1.164 0 2.307-.144 3.432-.436a9.661 9.661 0 0 0 3.025-1.34 7.528 7.528 0 0 0 2.183-2.245c.561-.893.881-1.922.959-3.087h7.03c-.27 2.045-.89 3.849-1.855 5.411a13.333 13.333 0 0 1-3.653 3.906c-1.47 1.043-3.16 1.834-5.075 2.373-1.914.539-3.933.81-6.059.81M626.741 574.81c-2.668 0-5.113-.436-7.336-1.305a15.436 15.436 0 0 1-5.741-3.887c-1.604-1.722-2.841-3.838-3.711-6.352-.87-2.514-1.305-5.432-1.305-8.76 0-3.285.435-6.196 1.305-8.728.87-2.533 2.107-4.652 3.71-6.353a15.596 15.596 0 0 1 5.742-3.857c2.223-.87 4.668-1.305 7.336-1.305 2.203 0 4.213.292 6.03.872 1.817.581 3.403 1.405 4.755 2.471a12.374 12.374 0 0 1 3.277 3.925c.83 1.55 1.363 3.294 1.595 5.232h-7.032c-.077-1.168-.36-2.202-.845-3.097a7.105 7.105 0 0 0-1.895-2.25c-.777-.604-1.681-1.061-2.711-1.374a10.938 10.938 0 0 0-3.177-.467c-1.673 0-3.19.33-4.55.989-1.358.658-2.525 1.62-3.497 2.88-.972 1.26-1.73 2.822-2.275 4.683-.543 1.862-.815 3.994-.815 6.4 0 4.848 1.002 8.542 3.003 11.082 2.002 2.54 4.714 3.81 8.134 3.81 1.087 0 2.147-.136 3.177-.408 1.03-.271 1.934-.699 2.711-1.281a6.78 6.78 0 0 0 1.895-2.215c.485-.894.768-1.962.845-3.205h7.032c-.232 2.045-.793 3.848-1.682 5.411a12.577 12.577 0 0 1-3.422 3.906c-1.391 1.043-2.986 1.834-4.784 2.373-1.798.539-3.72.81-5.769.81M663.54 573.95a23.06 23.06 0 0 1-2.379.351c-.811.08-1.662.118-2.551.118-2.17 0-3.877-.273-5.124-.814-1.246-.544-2.172-1.33-2.775-2.358-.605-1.027-.973-2.277-1.111-3.752-.136-1.475-.204-3.144-.204-5.006v-22.054h-4.755v-5.391h4.755v-9.567h6.954v9.567h6.261v5.39h-6.261v22.462c0 1.363.086 2.451.26 3.269.172.816.415 1.439.725 1.866.309.428.705.709 1.189.846a5.86 5.86 0 0 0 1.594.204c.617 0 1.207-.019 1.768-.057a11.93 11.93 0 0 0 1.654-.23v5.156M693.742 563.693v-8.65h-4.685c-9.95 0-14.925 2.747-14.925 8.24 0 1.988.713 3.507 2.14 4.558 1.428 1.053 3.414 1.578 5.96 1.578 1.117 0 2.226-.125 3.324-.38a13.782 13.782 0 0 0 3.153-1.14 15.7 15.7 0 0 0 2.805-1.81c.869-.7 1.611-1.5 2.229-2.396zm0 6.273c-3.547 3.23-8.06 4.844-13.533 4.844-1.889 0-3.645-.271-5.263-.813-1.619-.54-3.017-1.306-4.192-2.293a10.423 10.423 0 0 1-2.748-3.542c-.656-1.372-.982-2.89-.982-4.555 0-9.094 7.787-13.64 23.363-13.64h3.355c0-1.78-.077-3.328-.23-4.644-.155-1.317-.53-2.4-1.125-3.252-.596-.85-1.507-1.478-2.737-1.886-1.23-.406-2.939-.61-5.129-.61-6.147 0-9.297 2.215-9.451 6.641h-6.875c.54-7.969 6.098-11.954 16.674-11.954 2.471 0 4.68.204 6.63.61 1.947.407 3.599 1.15 4.95 2.233 1.35 1.082 2.382 2.57 3.096 4.465.715 1.894 1.073 4.311 1.073 7.25v25.052h-6.875v-3.906M725.913 573.95c-.774.156-1.567.274-2.378.351a26.38 26.38 0 0 1-2.551.118c-2.172 0-3.879-.273-5.125-.814-1.247-.544-2.172-1.33-2.775-2.358-.604-1.027-.974-2.277-1.11-3.752-.138-1.475-.204-3.144-.204-5.006v-22.054h-4.755v-5.391h4.755v-9.567h6.952v9.567h6.263v5.39h-6.263v22.462c0 1.363.087 2.451.26 3.269.174.816.415 1.439.725 1.866.31.428.707.709 1.19.846a5.869 5.869 0 0 0 1.594.204c.618 0 1.207-.019 1.769-.057a11.94 11.94 0 0 0 1.653-.23v5.156M738.459 573.872h-6.953v-38.828h6.953v38.828zm0-46.172h-6.953v-7.344h6.953v7.344M764.29 569.419c3.419 0 6.129-1.25 8.131-3.753 2.001-2.501 3.001-6.215 3.001-11.14 0-2.52-.27-4.711-.816-6.573-.543-1.862-1.311-3.413-2.302-4.654-.991-1.242-2.166-2.173-3.526-2.793-1.36-.62-2.857-.931-4.488-.931-1.671 0-3.187.33-4.547.989-1.36.659-2.525 1.62-3.497 2.88-.972 1.26-1.728 2.822-2.273 4.683-.544 1.862-.815 3.994-.815 6.4 0 4.848 1 8.542 3 11.082 2.002 2.54 4.712 3.81 8.132 3.81zm.02-35.156c2.785 0 5.3.455 7.544 1.363 2.243.908 4.158 2.223 5.746 3.944 1.585 1.721 2.804 3.839 3.655 6.353.851 2.513 1.278 5.375 1.278 8.583 0 3.328-.447 6.246-1.335 8.76-.89 2.514-2.138 4.63-3.744 6.352a15.46 15.46 0 0 1-5.745 3.887c-2.225.869-4.691 1.305-7.399 1.305-2.67 0-5.117-.436-7.341-1.305a15.44 15.44 0 0 1-5.745-3.887c-1.606-1.722-2.844-3.838-3.715-6.352-.87-2.514-1.305-5.432-1.305-8.76 0-3.285.435-6.196 1.305-8.728.871-2.533 2.109-4.652 3.715-6.353a15.6 15.6 0 0 1 5.745-3.857c2.224-.87 4.671-1.305 7.341-1.305M797.279 539.966c3.388-3.801 7.22-5.703 11.495-5.703 8.742 0 13.113 4.736 13.113 14.207v25.402h-6.952v-25.111c0-3.177-.559-5.463-1.674-6.86-1.116-1.393-2.962-2.091-5.539-2.091-3.5 0-6.982 2.074-10.443 6.219v27.843h-6.954v-38.828h6.954v4.922M845.72 574.81c-10.595 0-16.124-4.166-16.587-12.5h6.953c.075 4.74 3.267 7.109 9.573 7.109 2.882 0 5.056-.571 6.517-1.715 1.46-1.143 2.192-2.645 2.192-4.506 0-.853-.147-1.56-.435-2.123-.29-.561-.84-1.065-1.65-1.513-.812-.444-1.95-.89-3.417-1.336-1.467-.445-3.377-.96-5.731-1.541-2.316-.581-4.294-1.152-5.935-1.714-1.64-.563-3.001-1.259-4.081-2.09-1.083-.833-1.873-1.84-2.375-3.02-.501-1.183-.751-2.663-.751-4.446 0-1.626.337-3.116 1.015-4.471.677-1.355 1.646-2.528 2.903-3.515 1.258-.988 2.788-1.763 4.588-2.324 1.8-.561 3.802-.843 6.01-.843 10.141 0 15.33 3.622 15.561 10.86h-6.952c-.233-3.697-2.965-5.547-8.203-5.547-1.077 0-2.099.107-3.06.32-.964.214-1.81.533-2.541.961-.733.426-1.31.97-1.734 1.63-.424.659-.635 1.415-.635 2.268 0 .776.078 1.407.231 1.89.154.486.579.932 1.274 1.34.695.407 1.748.814 3.156 1.22 1.409.409 3.367.923 5.877 1.543 2.315.579 4.34 1.17 6.078 1.77 1.738.598 3.175 1.333 4.314 2.201 1.138.87 1.998 1.923 2.576 3.16.579 1.238.869 2.783.869 4.64 0 1.7-.357 3.305-1.072 4.812-.717 1.507-1.752 2.812-3.104 3.914-1.354 1.102-2.996 1.972-4.93 2.61-1.934.636-4.098.956-6.494.956" fill="#5a5758"/></svg>