<svg xmlns="http://www.w3.org/2000/svg" width="69.512" height="102.163" viewBox="0 0 69.512 102.163">
  <title>logo-solid</title>
  <path d="M14.834,39.387a3.77,3.77,0,0,1,2.466.835v4.613a2.97,2.97,0,0,1-2.505,2.107c-1.65,0-2.823-1.511-2.823-3.758S13.084,39.387,14.834,39.387ZM27.583,21.744c0,2.167,1.133,3.6,2.684,3.6a3.075,3.075,0,0,0,2.624-2.008V19.04a3.542,3.542,0,0,0-2.6-.855C28.656,18.185,27.583,19.616,27.583,21.744ZM69.512,0V102.163L34.756,79.348,0,102.163V0ZM19.878,12.916a1.549,1.549,0,0,0,3.082,0,1.549,1.549,0,0,0-3.082,0ZM15.53,24.249c0,.835-.955,1.412-2.386,1.412a4.973,4.973,0,0,1-2.883-.915l-.974,1.67A7.772,7.772,0,0,0,13.2,27.529c2.843,0,4.593-1.332,4.593-3.4,0-4.155-6-2.406-6-4.852,0-.875.775-1.451,2.048-1.451a5.951,5.951,0,0,1,2.645.616l.775-1.57a6.823,6.823,0,0,0-3.5-.9c-2.585,0-4.235,1.313-4.235,3.42C9.525,23.453,15.53,21.763,15.53,24.249Zm4.454,24.443a8.008,8.008,0,0,1-.358-2.426V33.323H17.339v5.11a4.707,4.707,0,0,0-3.022-.974c-2.823,0-4.712,2.267-4.712,5.726s1.949,5.746,4.672,5.746a3.922,3.922,0,0,0,3.281-1.949,3.742,3.742,0,0,0,.8,1.71Zm2.6-32.4H20.3V27.231h2.287ZM25.33,37.757H23.043V48.692H25.33Zm.378-3.38a1.549,1.549,0,1,0-1.531,1.392A1.456,1.456,0,0,0,25.708,34.376Zm7.223-8.9v1.173c0,2.107-.895,3.38-2.744,3.38a7.106,7.106,0,0,1-3.2-.815l-.855,1.63a8.047,8.047,0,0,0,4.116,1.093c3.221,0,4.971-1.948,4.971-5.09V16.3h-1.83L33.05,17.31A4.485,4.485,0,0,0,29.928,16.2c-2.823,0-4.712,2.187-4.712,5.547s1.929,5.606,4.652,5.606A3.491,3.491,0,0,0,32.931,25.481Zm3.952,22.654-.855-1.71a5.869,5.869,0,0,1-2.545.656c-1.909,0-3.141-1.452-3.141-3.837,0-2.426,1.232-3.877,3.141-3.877a6.233,6.233,0,0,1,2.545.557l.835-1.61a6.844,6.844,0,0,0-3.42-.855c-3.281,0-5.468,2.267-5.468,5.786,0,3.5,2.187,5.746,5.468,5.746A7.194,7.194,0,0,0,36.883,48.135Zm8.777.278L45.3,46.584a6.537,6.537,0,0,1-1.591.219c-.815,0-1.173-.417-1.173-1.332V39.685h2.843V37.757H42.538v-3.32l-2.267.875v2.446H38.7v1.928h1.571v6.243c0,1.889.954,2.823,2.942,2.823A8.862,8.862,0,0,0,45.66,48.414Zm2.115-28.281c0-2.664-1.232-4.036-3.3-4.036a5.1,5.1,0,0,0-3.9,1.809l-.3-1.61H38.371V27.231h2.267V19.576A3.767,3.767,0,0,1,43.7,18.025c1.173,0,1.79.815,1.79,2.366v6.839h2.286Z"/>
</svg>
