<svg xmlns="http://www.w3.org/2000/svg" width="186.147" height="101.539" viewBox="0 0 186.147 101.539">
  <title>hands</title>
  <path d="M174.352,34.339l11.8-2.372s-7.2,45.155-7.584,45.3-50.738,21.355-50.738,21.355l-31.8-61.867,9.114-4.956,12.476,22.386,2.673-1.053L104.72,17.408l10.4-5.009,14.692,29.7,2.817-.655L121.081,5.957l10.073-3.514,13.317,34.34,3.963-1.106L139.946,2.62,151.215,0l14.651,52.471ZM11.99,51.447,0,52.231S17.817,94.066,18.223,94.112s54.251,7.427,54.251,7.427L88.4,33.339,78.391,30.921l-6.7,24.93-2.841-.322,6.489-38.655L64.061,14.742l-7.09,32.593-2.885.1,2.66-37.376-10.6-.771L41.505,46.012l-4.1-.036.279-34.221-11.54.406L24.559,66.785Z" fill="#50d8c8"/>
</svg>
