<svg xmlns="http://www.w3.org/2000/svg" width="114.95" height="119.109" viewBox="0 0 114.95 119.109"><title>hand</title><path d="M66.305 0L51.77 1.75l2.858 48.877-5.563 1.018L40.922 7.15 25.4 10.674 36.86 81.99 16.032 65.346 0 69.475s34.534 49.68 35.094 49.634c.56-.046 75.275-4.445 75.275-4.445L114.95 22l-14.154-.54-2.865 34.1-3.924.32-.844-51.86-15.79.158-1.481 44.15-3.88.881L66.306 0zm25.037 64.727l3.607 33.808-29.888 3.016-7.502 11.32-2.676-10.293-5.877.594-3.608-33.809 45.944-4.636z" fill="#50dbcb"/></svg>