<?xml version="1.0" encoding="UTF-8" standalone="no"?>
<svg
   xmlns:dc="http://purl.org/dc/elements/1.1/"
   xmlns:cc="http://creativecommons.org/ns#"
   xmlns:rdf="http://www.w3.org/1999/02/22-rdf-syntax-ns#"
   xmlns:svg="http://www.w3.org/2000/svg"
   xmlns="http://www.w3.org/2000/svg"
   viewBox="0 0 1019.1 589.57501"
   height="589.57501"
   width="1019.1"
   xml:space="preserve"
   version="1.1"
   id="svg3371"><metadata
     id="metadata3377"><rdf:RDF><cc:Work
         rdf:about=""><dc:format>image/svg+xml</dc:format><dc:type
           rdf:resource="http://purl.org/dc/dcmitype/StillImage" /><dc:title></dc:title></cc:Work></rdf:RDF></metadata><defs
     id="defs3375" /><g
     transform="matrix(1.25,0,0,-1.25,0,589.575)"
     id="g3379"><g
       transform="scale(0.1,0.1)"
       id="g3381"><path
         id="path3383"
         style="fill:#639f1e;fill-opacity:1;fill-rule:nonzero;stroke:none"
         d="m 4988.99,3012.39 c 0,-106 -85.97,-191.94 -191.98,-191.94 l -1512.24,0 c -106.03,0 -191.99,85.94 -191.99,191.94 l 0,1512.25 c 0,106.05 85.96,191.98 191.99,191.98 l 1512.24,0 c 106.01,0 191.98,-85.93 191.98,-191.98 l 0,-1512.25" /><path
         id="path3385"
         style="fill:#ffffff;fill-opacity:1;fill-rule:nonzero;stroke:none"
         d="m 4107.91,3063.69 0,655.86 c 0,132.18 19.45,243.15 58.43,332.92 39.01,89.89 92.37,161.9 160.18,216.16 64.35,50.83 139.77,88.11 226.16,111.82 86.47,23.74 175.44,35.62 266.99,35.62 6.78,0 15.21,0 25.37,0 10.2,0 18.66,0 25.46,0 l 0,-360.97 -116.96,0 c -98.34,0 -171.17,-23.75 -218.61,-71.19 -47.46,-47.45 -71.19,-122 -71.19,-223.69 l 0,-696.53 -355.83,0" /><path
         id="path3387"
         style="fill:#ffffff;fill-opacity:1;fill-rule:nonzero;stroke:none"
         d="m 3627.19,3063.69 0,696.53 c 0,101.69 -23.72,176.24 -71.2,223.69 -47.44,47.44 -120.25,71.19 -218.61,71.19 l -116.98,0 0,360.97 c 6.82,0 15.34,0 25.47,0 10.18,0 18.64,0 25.37,0 91.57,0 180.56,-11.88 267,-35.62 86.4,-23.71 161.82,-60.99 226.19,-111.82 67.8,-54.26 121.2,-126.27 160.16,-216.16 38.95,-89.77 58.47,-200.74 58.47,-332.92 l 0,-655.86 -355.87,0" /><path
         id="path3389"
         style="fill:#639f1e;fill-opacity:1;fill-rule:nonzero;stroke:none"
         d="m 278.75,1608.82 367.5,0 c 70.527,0 123.75,6.42 159.648,19.31 35.899,12.87 60.782,37.05 74.649,72.56 13.848,35.49 20.781,89.05 20.781,160.65 0,70.97 -5.996,122.97 -17.949,155.95 -11.973,32.97 -34.024,55.43 -66.133,67.37 -32.129,11.93 -82.832,17.91 -152.109,17.91 l -386.387,0 0,-493.75 z m 427.031,-238.75 -427.031,0 0,-480 -278.75,0 0,1451.25 740.684,0 c 81.25,-1.9 149.746,-10.55 205.488,-25.98 55.738,-15.43 100.448,-39.02 134.158,-70.82 33.69,-31.8 58.73,-75.57 75.1,-131.27 16.37,-55.72 24.57,-124.82 24.57,-207.3 0,-87.52 -4.88,-156.78 -14.65,-207.78 -9.76,-50.99 -33.38,-94.27 -70.84,-129.84 -37.48,-35.59 -94.627,-59.02 -171.444,-70.35 l 0,-7.58 c 95.074,-8.2 159.784,-37.97 194.124,-89.34 34.31,-51.36 51.48,-131.27 51.48,-239.66 l 0,-271.33 -278.67,0 0,271.17 c 0,137.32 -61.406,206.93 -184.219,208.83" /><path
         id="path3391"
         style="fill:#639f1e;fill-opacity:1;fill-rule:nonzero;stroke:none"
         d="m 1675.74,1608.82 367.5,0 c 70.52,0 123.75,6.42 159.65,19.31 35.89,12.87 60.78,37.05 74.64,72.56 13.85,35.49 20.79,89.05 20.79,160.65 0,70.97 -6,122.97 -17.95,155.95 -11.98,32.97 -34.03,55.43 -66.14,67.37 -32.13,11.93 -82.83,17.91 -152.11,17.91 l -386.38,0 0,-493.75 z m 427.03,-238.75 -427.03,0 0,-480 -278.75,0 0,1451.25 740.68,0 c 81.25,-1.9 149.75,-10.55 205.49,-25.98 55.74,-15.43 100.45,-39.02 134.16,-70.82 33.69,-31.8 58.73,-75.57 75.1,-131.27 16.36,-55.72 24.57,-124.82 24.57,-207.3 0,-87.52 -4.89,-156.78 -14.65,-207.78 -9.77,-50.99 -33.38,-94.27 -70.84,-129.84 -37.48,-35.59 -94.63,-59.02 -171.45,-70.35 l 0,-7.58 c 95.08,-8.2 159.79,-37.97 194.12,-89.34 34.32,-51.36 51.49,-131.27 51.49,-239.66 l 0,-271.33 -278.67,0 0,271.17 c 0,137.32 -61.41,206.93 -184.22,208.83" /><path
         id="path3393"
         style="fill:#5a5758;fill-opacity:1;fill-rule:nonzero;stroke:none"
         d="m 3078.97,1522.57 0,-393.75 380.14,0 c 64.76,0 113.49,3.59 146.19,10.82 32.69,7.22 57.54,24.33 74.53,51.35 16.97,26.99 25.47,69.39 25.47,127.16 0,54.63 -5.35,96.23 -16.04,124.81 -10.7,28.57 -29.88,48.98 -57.54,61.23 -27.67,12.24 -69.49,18.38 -125.45,18.38 l -427.3,0 z m 0,580 0,-368.75 399.82,0 c 51.55,0 91.16,6.11 118.81,18.38 27.66,12.26 46.68,32.69 57.05,61.3 10.37,28.6 15.57,69.63 15.57,123.09 0,50.29 -6.76,87.23 -20.27,110.8 -13.52,23.58 -33.48,38.67 -59.89,45.27 -26.4,6.61 -66.01,9.91 -118.81,9.91 l -392.28,0 z m 468.53,-1212.5 -747.28,0 0,1451.25 721.7,0 c 101.39,0 182.62,-9.77 243.71,-29.3 61.09,-19.53 107.07,-56.56 137.93,-111.05 30.86,-54.52 46.29,-133.42 46.29,-236.74 0,-59.89 -5.37,-110.76 -16.11,-152.66 -10.75,-41.89 -31.29,-77.01 -61.63,-105.37 -30.33,-28.36 -73.92,-49.45 -130.8,-63.32 l 0,-8.54 c 65.08,-7.55 115.49,-26.13 151.19,-55.72 35.71,-29.61 59.87,-67.85 72.5,-114.76 12.64,-46.92 18.97,-103.44 18.97,-169.53 0,-79.36 -8.52,-145.47 -25.51,-198.36 -17.01,-52.89 -42.83,-93.99 -77.48,-123.271 -34.65,-29.269 -79.51,-50.367 -134.63,-63.277 -55.11,-12.91 -121.38,-19.352 -198.85,-19.352" /><path
         id="path3395"
         style="fill:#5a5758;fill-opacity:1;fill-rule:nonzero;stroke:none"
         d="m 4749.13,2113.82 c -76.18,0 -135.96,-4.57 -179.38,-13.69 -43.44,-9.13 -75.84,-24.07 -97.25,-44.81 -21.4,-20.76 -35.87,-48.59 -43.41,-83.49 -7.56,-34.91 -12.29,-84.75 -14.16,-149.54 l 0,-390.56 c 0,-73.6 4.55,-130.84 13.69,-171.72 9.12,-40.88 25.17,-71.54 48.14,-91.97 22.97,-20.45 55.53,-33.97 97.7,-40.57 42.17,-6.6 100.39,-9.9 174.67,-9.9 91.87,0 161.11,7.07 207.69,21.23 46.56,14.14 80.39,43.4 101.49,87.73 21.07,44.34 31.62,112.74 31.62,205.2 l 0,390.56 c 0,67.93 -6.62,121.7 -19.83,161.33 -13.22,39.61 -32.73,68.56 -58.53,86.8 -25.82,18.24 -58.54,30.02 -98.19,35.37 -39.64,5.35 -94.41,8.03 -164.25,8.03 z m 0.46,238.75 c 115.94,0 210.61,-6.31 284.03,-18.91 73.4,-12.6 135,-36.68 184.78,-72.26 49.77,-35.59 87.27,-88.79 112.46,-159.65 25.2,-70.86 37.82,-163.93 37.82,-279.16 l 0,-391.12 c 0,-151.79 -20.65,-267.52 -61.92,-347.18 -41.27,-79.67 -105.39,-133.829 -192.34,-162.481 -86.95,-28.68 -208.58,-42.989 -364.83,-42.989 -120.99,0 -218.82,7.09 -293.49,21.25 -74.67,14.18 -135.63,40.469 -182.89,78.879 -47.27,38.421 -81.92,93.701 -103.97,165.801 -22.05,72.11 -33.06,167.68 -33.06,286.72 l 0,391.12 c 0,113.98 10.54,205.31 31.66,273.96 21.09,68.63 54.8,121.54 101.13,158.71 46.31,37.15 106.95,62.66 181.93,76.53 74.98,13.84 174.55,20.78 298.69,20.78" /><path
         id="path3397"
         style="fill:#5a5758;fill-opacity:1;fill-rule:nonzero;stroke:none"
         d="m 6659.52,1128.09 -22.66,1213.23 278.38,0 0,-1451.25 -462.38,0 -616.21,1212.79 -9.44,0 22.66,-1212.79 -278.38,0 0,1451.25 460.51,0 619.96,-1213.23 7.56,0" /><path
         id="path3399"
         style="fill:#5a5758;fill-opacity:1;fill-rule:nonzero;stroke:none"
         d="m 7431.56,2102.57 0,-361.25 677.79,0 0,-228.75 -677.79,0 0,-383.75 721.23,0 0,-238.75 -999.98,0 0,1451.25 993.36,0 0,-238.75 -714.61,0" /><path
         id="path3401"
         style="fill:#5a5758;fill-opacity:1;fill-rule:nonzero;stroke:none"
         d="m 1275.26,310.621 c -4.66,30.098 -14.7,52.52 -30.1,67.27 -15.4,14.738 -34.77,22.109 -58.1,22.109 -10.89,0 -21.07,-1.789 -30.57,-5.348 -9.49,-3.582 -18.04,-9.011 -25.66,-16.3 -7.63,-7.301 -14.08,-16.602 -19.37,-27.93 -5.29,-11.332 -9.02,-24.59 -11.2,-39.801 l 175,0 z m -81.89,-192.5 c -22.58,0 -43.15,3.649 -61.7,10.899 -18.55,7.269 -34.48,17.8 -47.78,31.562 -13.3,13.77 -23.59,30.707 -30.85,50.816 -7.27,20.102 -10.9,43.153 -10.9,69.153 0,25.359 3.55,48.09 10.67,68.211 7.12,20.109 17.1,37.117 29.95,51.039 12.85,13.929 28.09,24.531 45.73,31.789 17.63,7.269 37.14,10.91 58.49,10.91 22.29,0 42.4,-3.629 60.35,-10.879 17.95,-7.262 33.28,-17.75 45.97,-31.48 12.69,-13.731 22.43,-30.641 29.25,-50.7 6.81,-20.062 10.21,-42.902 10.21,-68.511 l 0,-13.43 -233.75,0 c 1.24,-18.418 4.51,-34.328 9.78,-47.75 5.27,-13.41 12.09,-24.5 20.47,-33.23 8.38,-8.739 18.06,-15.129 29.08,-19.188 11.02,-4.062 22.72,-6.082 35.14,-6.082 9.3,0 18.45,1.16 27.46,3.492 8.99,2.328 17.06,5.899 24.2,10.727 7.13,4.812 12.95,10.801 17.45,17.953 4.49,7.148 7.05,15.379 7.67,24.699 l 56.25,0 c -2.16,-16.359 -7.12,-30.789 -14.85,-43.289 -7.73,-12.5 -17.47,-22.922 -29.22,-31.25 -11.76,-8.34 -25.28,-14.672 -40.59,-18.98 -15.32,-4.313 -31.47,-6.481 -48.48,-6.481" /><path
         id="path3403"
         style="fill:#5a5758;fill-opacity:1;fill-rule:nonzero;stroke:none"
         d="m 1648.29,125.621 -68.19,0 -76.64,121.188 -77.11,-121.188 -68.18,0 114.43,161.121 -105.52,149.508 68.65,0 67.73,-108.648 67.27,108.648 68.65,0 -105.53,-148.59 114.44,-162.039" /><path
         id="path3405"
         style="fill:#5a5758;fill-opacity:1;fill-rule:nonzero;stroke:none"
         d="m 1818.96,118.121 c -21.35,0 -40.91,3.488 -58.69,10.438 -17.78,6.961 -33.1,17.332 -45.93,31.101 -12.83,13.77 -22.73,30.699 -29.69,50.809 -6.96,20.113 -10.44,43.461 -10.44,70.082 0,26.281 3.48,49.57 10.44,69.828 6.96,20.262 16.86,37.211 29.69,50.82 12.83,13.61 28.15,23.903 45.93,30.86 17.78,6.953 37.34,10.441 58.69,10.441 17.62,0 33.7,-2.34 48.24,-6.98 14.53,-4.649 27.22,-11.239 38.04,-19.77 10.82,-8.52 19.56,-18.988 26.21,-31.398 6.65,-12.403 10.91,-26.352 12.76,-41.852 l -56.25,0 c -0.62,9.34 -2.88,17.609 -6.76,24.77 -3.89,7.171 -8.95,13.171 -15.16,18 -6.22,4.832 -13.45,8.492 -21.69,10.992 -8.24,2.488 -16.72,3.738 -25.42,3.738 -13.38,0 -25.51,-2.641 -36.39,-7.91 -10.87,-5.27 -20.21,-12.961 -27.98,-23.039 -7.78,-10.09 -13.84,-22.582 -18.2,-37.469 -4.35,-14.891 -6.52,-31.953 -6.52,-51.191 0,-38.789 8.01,-68.34 24.02,-88.661 16.02,-20.32 37.71,-30.48 65.07,-30.48 8.7,0 17.18,1.082 25.42,3.262 8.24,2.168 15.47,5.59 21.69,10.25 6.21,4.66 11.27,10.57 15.16,17.718 3.88,7.149 6.14,15.692 6.76,25.641 l 56.25,0 c -1.85,-16.359 -6.34,-30.789 -13.45,-43.289 -7.11,-12.5 -16.24,-22.922 -27.38,-31.25 -11.13,-8.34 -23.89,-14.672 -38.27,-18.98 -14.38,-4.313 -29.76,-6.481 -46.15,-6.481" /><path
         id="path3407"
         style="fill:#5a5758;fill-opacity:1;fill-rule:nonzero;stroke:none"
         d="m 2206.45,310.621 c -4.67,30.098 -14.71,52.52 -30.11,67.27 -15.4,14.738 -34.76,22.109 -58.09,22.109 -10.89,0 -21.08,-1.789 -30.57,-5.348 -9.49,-3.582 -18.05,-9.011 -25.66,-16.3 -7.63,-7.301 -14.09,-16.602 -19.37,-27.93 -5.29,-11.332 -9.02,-24.59 -11.2,-39.801 l 175,0 z m -81.89,-192.5 c -22.58,0 -43.15,3.649 -61.7,10.899 -18.56,7.269 -34.49,17.8 -47.79,31.562 -13.3,13.77 -23.58,30.707 -30.85,50.816 -7.26,20.102 -10.89,43.153 -10.89,69.153 0,25.359 3.55,48.09 10.67,68.211 7.12,20.109 17.1,37.117 29.95,51.039 12.84,13.929 28.09,24.531 45.72,31.789 17.64,7.269 37.14,10.91 58.5,10.91 22.28,0 42.4,-3.629 60.35,-10.879 17.95,-7.262 33.27,-17.75 45.97,-31.48 12.68,-13.731 22.43,-30.641 29.25,-50.7 6.8,-20.062 10.21,-42.902 10.21,-68.511 l 0,-13.43 -233.75,0 c 1.24,-18.418 4.5,-34.328 9.78,-47.75 5.27,-13.41 12.09,-24.5 20.46,-33.23 8.38,-8.739 18.07,-15.129 29.09,-19.188 11.01,-4.062 22.72,-6.082 35.13,-6.082 9.31,0 18.46,1.16 27.46,3.492 9,2.328 17.06,5.899 24.2,10.727 7.13,4.812 12.95,10.801 17.45,17.953 4.5,7.148 7.06,15.379 7.68,24.699 l 56.25,0 c -2.17,-16.359 -7.12,-30.789 -14.85,-43.289 -7.74,-12.5 -17.47,-22.922 -29.22,-31.25 -11.76,-8.34 -25.29,-14.672 -40.6,-18.98 -15.31,-4.313 -31.46,-6.481 -48.47,-6.481" /><path
         id="path3409"
         style="fill:#5a5758;fill-opacity:1;fill-rule:nonzero;stroke:none"
         d="m 2380.66,125.621 -55.62,0 0,428.129 55.62,0 0,-428.129" /><path
         id="path3411"
         style="fill:#5a5758;fill-opacity:1;fill-rule:nonzero;stroke:none"
         d="m 2517,125.621 -55.62,0 0,428.129 55.62,0 0,-428.129" /><path
         id="path3413"
         style="fill:#5a5758;fill-opacity:1;fill-rule:nonzero;stroke:none"
         d="m 2653.34,125.621 -55.63,0 0,310.629 55.63,0 0,-310.629 z m 0,369.379 -55.63,0 0,58.75 55.63,0 0,-58.75" /><path
         id="path3415"
         style="fill:#5a5758;fill-opacity:1;fill-rule:nonzero;stroke:none"
         d="m 2790.93,396.871 c 27.11,30.41 57.77,45.629 91.97,45.629 69.94,0 104.91,-37.891 104.91,-113.66 l 0,-203.219 -55.63,0 0,200.891 c 0,25.418 -4.46,43.707 -13.39,54.879 -8.92,11.148 -23.7,16.73 -44.3,16.73 -28.01,0 -55.86,-16.59 -83.56,-49.75 l 0,-222.75 -55.62,0 0,310.629 55.62,0 0,-39.379" /><path
         id="path3417"
         style="fill:#5a5758;fill-opacity:1;fill-rule:nonzero;stroke:none"
         d="m 3263.9,214.352 0,148.148 c -24.19,25 -51.48,37.5 -81.87,37.5 -23.56,0 -42.48,-10.09 -56.74,-30.258 -14.26,-20.16 -21.39,-50.722 -21.39,-91.672 0,-38.789 6.73,-67.949 20.23,-87.5 13.49,-19.558 32.01,-29.32 55.58,-29.32 30.39,0 58.44,17.691 84.19,53.102 z m 55,-64.45 C 3318.9,49.9688 3273.89,0 3183.87,0 c -19.49,0 -36.98,2.24219 -52.44,6.73047 -15.47,4.48833 -28.71,10.75003 -39.68,18.80083 -10.98,8.039 -19.41,17.871 -25.29,29.4687 -5.87,11.6016 -8.81,24.5195 -8.81,38.75 l 56.87,0 c 0,-34.1602 22.8,-51.25 68.41,-51.25 12.09,0 23.18,1.4609 33.26,4.3789 10.08,2.9414 18.61,8.2617 25.6,15.9531 6.98,7.7071 12.41,18.3282 16.29,31.8868 3.87,13.5512 5.82,30.9532 5.82,52.2112 l 0,15.25 c -24.74,-29.379 -54.26,-44.059 -88.57,-44.059 -20.1,0 -37.96,3.719 -53.56,11.141 -15.62,7.418 -28.91,18.008 -39.89,31.777 -10.97,13.77 -19.31,30.551 -25.03,50.359 -5.73,19.801 -8.58,42.082 -8.58,66.821 0,25.371 3.24,48.191 9.74,68.453 6.48,20.258 15.53,37.508 27.13,51.75 11.59,14.226 25.35,25.129 41.27,32.707 15.91,7.582 33.45,11.371 52.62,11.371 33.69,0 61.99,-10.219 84.87,-30.629 l 0,24.379 55,0 0,-286.348" /><path
         id="path3419"
         style="fill:#5a5758;fill-opacity:1;fill-rule:nonzero;stroke:none"
         d="m 3804.31,310.621 c -4.67,30.098 -14.71,52.52 -30.11,67.27 -15.4,14.738 -34.77,22.109 -58.1,22.109 -10.89,0 -21.07,-1.789 -30.56,-5.348 -9.5,-3.582 -18.05,-9.011 -25.67,-16.3 -7.62,-7.301 -14.08,-16.602 -19.36,-27.93 -5.3,-11.332 -9.03,-24.59 -11.2,-39.801 l 175,0 z m -81.9,-192.5 c -22.58,0 -43.14,3.649 -61.7,10.899 -18.55,7.269 -34.48,17.8 -47.78,31.562 -13.3,13.77 -23.58,30.707 -30.85,50.816 -7.27,20.102 -10.9,43.153 -10.9,69.153 0,25.359 3.56,48.09 10.68,68.211 7.11,20.109 17.1,37.117 29.95,51.039 12.84,13.929 28.08,24.531 45.72,31.789 17.64,7.269 37.14,10.91 58.5,10.91 22.28,0 42.4,-3.629 60.35,-10.879 17.95,-7.262 33.27,-17.75 45.96,-31.48 12.69,-13.731 22.44,-30.641 29.25,-50.7 6.81,-20.062 10.22,-42.902 10.22,-68.511 l 0,-13.43 -233.75,0 c 1.24,-18.418 4.5,-34.328 9.77,-47.75 5.28,-13.41 12.09,-24.5 20.47,-33.23 8.38,-8.739 18.07,-15.129 29.08,-19.188 11.02,-4.062 22.73,-6.082 35.14,-6.082 9.31,0 18.46,1.16 27.46,3.492 8.99,2.328 17.06,5.899 24.2,10.727 7.13,4.812 12.95,10.801 17.45,17.953 4.49,7.148 7.05,15.379 7.68,24.699 l 56.25,0 c -2.17,-16.359 -7.12,-30.789 -14.86,-43.289 -7.73,-12.5 -17.47,-22.922 -29.22,-31.25 -11.75,-8.34 -25.28,-14.672 -40.59,-18.98 -15.31,-4.313 -31.47,-6.481 -48.48,-6.481" /><path
         id="path3421"
         style="fill:#5a5758;fill-opacity:1;fill-rule:nonzero;stroke:none"
         d="m 4177.33,125.621 -68.18,0 -76.65,121.188 -77.1,-121.188 -68.19,0 114.44,161.121 -105.53,149.508 68.65,0 67.73,-108.648 67.27,108.648 68.65,0 -105.52,-148.59 114.43,-162.039" /><path
         id="path3423"
         style="fill:#5a5758;fill-opacity:1;fill-rule:nonzero;stroke:none"
         d="m 4278.88,198.75 c 23.12,-25 50.09,-37.5 80.91,-37.5 24.04,0 42.92,10.082 56.64,30.242 13.71,20.168 20.58,50.738 20.58,91.688 0,38.781 -6.48,67.941 -19.43,87.492 -12.95,19.547 -31.43,29.328 -55.48,29.328 -30.21,0 -57.94,-17.859 -83.22,-53.578 l 0,-147.672 z m 0,200.621 c 24.35,28.75 53.78,43.129 88.31,43.129 20.04,0 37.91,-3.789 53.64,-11.371 15.72,-7.578 28.97,-18.25 39.76,-32.02 10.78,-13.769 19.03,-30.48 24.74,-50.129 5.7,-19.648 8.55,-41.531 8.55,-65.648 0,-25.062 -3.24,-47.801 -9.71,-68.223 -6.48,-20.418 -15.57,-37.828 -27.28,-52.211 -11.72,-14.386 -25.59,-25.437 -41.61,-33.168 -16.04,-7.738 -33.45,-11.609 -52.25,-11.609 -33.29,0 -61.34,10.41 -84.15,31.25 l 0,-143.121 -55.62,0 0,430 55.62,0 0,-36.879" /><path
         id="path3425"
         style="fill:#5a5758;fill-opacity:1;fill-rule:nonzero;stroke:none"
         d="m 4769.34,310.621 c -4.67,30.098 -14.71,52.52 -30.11,67.27 -15.4,14.738 -34.76,22.109 -58.09,22.109 -10.89,0 -21.08,-1.789 -30.57,-5.348 -9.49,-3.582 -18.05,-9.011 -25.66,-16.3 -7.63,-7.301 -14.08,-16.602 -19.37,-27.93 -5.29,-11.332 -9.02,-24.59 -11.2,-39.801 l 175,0 z m -81.89,-192.5 c -22.58,0 -43.15,3.649 -61.7,10.899 -18.56,7.269 -34.49,17.8 -47.79,31.562 -13.3,13.77 -23.58,30.707 -30.85,50.816 -7.26,20.102 -10.89,43.153 -10.89,69.153 0,25.359 3.55,48.09 10.67,68.211 7.12,20.109 17.1,37.117 29.95,51.039 12.84,13.929 28.09,24.531 45.72,31.789 17.64,7.269 37.14,10.91 58.5,10.91 22.28,0 42.4,-3.629 60.35,-10.879 17.95,-7.262 33.27,-17.75 45.97,-31.48 12.68,-13.731 22.43,-30.641 29.25,-50.7 6.8,-20.062 10.21,-42.902 10.21,-68.511 l 0,-13.43 -233.75,0 c 1.24,-18.418 4.5,-34.328 9.78,-47.75 5.27,-13.41 12.09,-24.5 20.46,-33.23 8.38,-8.739 18.07,-15.129 29.09,-19.188 11.01,-4.062 22.72,-6.082 35.13,-6.082 9.31,0 18.46,1.16 27.46,3.492 9,2.328 17.07,5.899 24.2,10.727 7.13,4.812 12.95,10.801 17.46,17.953 4.49,7.148 7.05,15.379 7.67,24.699 l 56.25,0 c -2.17,-16.359 -7.12,-30.789 -14.85,-43.289 -7.74,-12.5 -17.47,-22.922 -29.22,-31.25 -11.76,-8.34 -25.28,-14.672 -40.6,-18.98 -15.31,-4.313 -31.46,-6.481 -48.47,-6.481" /><path
         id="path3427"
         style="fill:#5a5758;fill-opacity:1;fill-rule:nonzero;stroke:none"
         d="m 5013.93,118.121 c -21.35,0 -40.91,3.488 -58.69,10.438 -17.78,6.961 -33.1,17.332 -45.93,31.101 -12.83,13.77 -22.73,30.699 -29.69,50.809 -6.96,20.113 -10.44,43.461 -10.44,70.082 0,26.281 3.48,49.57 10.44,69.828 6.96,20.262 16.86,37.211 29.69,50.82 12.83,13.61 28.15,23.903 45.93,30.86 17.78,6.953 37.34,10.441 58.69,10.441 17.62,0 33.7,-2.34 48.24,-6.98 14.53,-4.649 27.22,-11.239 38.04,-19.77 10.82,-8.52 19.56,-18.988 26.21,-31.398 6.65,-12.403 10.91,-26.352 12.76,-41.852 l -56.25,0 c -0.62,9.34 -2.88,17.609 -6.76,24.77 -3.89,7.171 -8.95,13.171 -15.16,18 -6.22,4.832 -13.45,8.492 -21.69,10.992 -8.24,2.488 -16.72,3.738 -25.42,3.738 -13.38,0 -25.51,-2.641 -36.39,-7.91 -10.87,-5.27 -20.21,-12.961 -27.98,-23.039 -7.78,-10.09 -13.84,-22.582 -18.2,-37.469 -4.35,-14.891 -6.52,-31.953 -6.52,-51.191 0,-38.789 8.01,-68.34 24.02,-88.661 16.02,-20.32 37.71,-30.48 65.07,-30.48 8.7,0 17.18,1.082 25.42,3.262 8.24,2.168 15.47,5.59 21.69,10.25 6.21,4.66 11.27,10.57 15.16,17.718 3.88,7.149 6.14,15.692 6.76,25.641 l 56.25,0 c -1.85,-16.359 -6.34,-30.789 -13.45,-43.289 -7.11,-12.5 -16.24,-22.922 -27.38,-31.25 -11.13,-8.34 -23.89,-14.672 -38.27,-18.98 -14.38,-4.313 -29.76,-6.481 -46.15,-6.481" /><path
         id="path3429"
         style="fill:#5a5758;fill-opacity:1;fill-rule:nonzero;stroke:none"
         d="m 5308.32,125 c -6.2,-1.25 -12.53,-2.191 -19.03,-2.809 -6.49,-0.632 -13.3,-0.941 -20.41,-0.941 -17.36,0 -31.02,2.18 -40.99,6.512 -9.97,4.347 -17.38,10.64 -22.2,18.859 -4.84,8.219 -7.79,18.219 -8.89,30.02 -1.09,11.8 -1.63,25.148 -1.63,40.05 l 0,176.43 -38.04,0 0,43.129 38.04,0 0,76.531 55.63,0 0,-76.531 50.09,0 0,-43.129 -50.09,0 0,-179.691 c 0,-10.899 0.69,-19.61 2.08,-26.149 1.38,-6.531 3.32,-11.511 5.8,-14.929 2.47,-3.422 5.64,-5.672 9.51,-6.77 3.87,-1.09 8.11,-1.633 12.75,-1.633 4.94,0 9.66,0.153 14.15,0.461 4.49,0.309 8.89,0.922 13.23,1.84 l 0,-41.25" /><path
         id="path3431"
         style="fill:#5a5758;fill-opacity:1;fill-rule:nonzero;stroke:none"
         d="m 5549.94,207.059 0,69.191 -37.48,0 c -79.6,0 -119.4,-21.969 -119.4,-65.918 0,-15.902 5.7,-28.051 17.12,-36.461 11.42,-8.422 27.31,-12.621 47.67,-12.621 8.94,0 17.81,1 26.6,3.039 8.79,2.02 17.2,5.051 25.22,9.113 8.02,4.047 15.5,8.879 22.44,14.489 6.95,5.601 12.89,12 17.83,19.168 z m 0,-50.188 c -28.38,-25.84 -64.48,-38.75 -108.27,-38.75 -15.11,0 -29.16,2.168 -42.1,6.5 -12.95,4.328 -24.14,10.449 -33.54,18.348 -9.41,7.89 -16.74,17.332 -21.98,28.332 -5.25,10.98 -7.86,23.129 -7.86,36.441 0,72.758 62.3,109.129 186.91,109.129 l 26.84,0 c 0,14.238 -0.62,26.621 -1.85,37.149 -1.23,10.531 -4.23,19.191 -8.99,26.011 -4.77,6.801 -12.06,11.828 -21.9,15.09 -9.84,3.25 -23.51,4.879 -41.03,4.879 -49.18,0 -74.38,-17.719 -75.61,-53.129 l -55,0 c 4.32,63.75 48.78,95.629 133.39,95.629 19.77,0 37.44,-1.629 53.04,-4.871 15.58,-3.258 28.79,-9.207 39.6,-17.867 10.8,-8.66 19.06,-20.563 24.77,-35.723 5.72,-15.148 8.58,-34.488 8.58,-58 l 0,-200.418 -55,0 0,31.25" /><path
         id="path3433"
         style="fill:#5a5758;fill-opacity:1;fill-rule:nonzero;stroke:none"
         d="m 5807.3,125 c -6.19,-1.25 -12.53,-2.191 -19.02,-2.809 -6.5,-0.632 -13.3,-0.941 -20.41,-0.941 -17.37,0 -31.03,2.18 -41,6.512 -9.97,4.347 -17.37,10.64 -22.2,18.859 -4.83,8.219 -7.79,18.219 -8.88,30.02 -1.1,11.8 -1.63,25.148 -1.63,40.05 l 0,176.43 -38.04,0 0,43.129 38.04,0 0,76.531 55.62,0 0,-76.531 50.1,0 0,-43.129 -50.1,0 0,-179.691 c 0,-10.899 0.69,-19.61 2.08,-26.149 1.39,-6.531 3.32,-11.511 5.8,-14.929 2.47,-3.422 5.65,-5.672 9.51,-6.77 3.87,-1.09 8.12,-1.633 12.76,-1.633 4.94,0 9.65,0.153 14.15,0.461 4.48,0.309 8.88,0.922 13.22,1.84 l 0,-41.25" /><path
         id="path3435"
         style="fill:#5a5758;fill-opacity:1;fill-rule:nonzero;stroke:none"
         d="m 5907.67,125.621 -55.62,0 0,310.629 55.62,0 0,-310.629 z m 0,369.379 -55.62,0 0,58.75 55.62,0 0,-58.75" /><path
         id="path3437"
         style="fill:#5a5758;fill-opacity:1;fill-rule:nonzero;stroke:none"
         d="m 6114.32,161.25 c 27.35,0 49.03,10 65.05,30.02 16.01,20.011 24.01,49.722 24.01,89.121 0,20.168 -2.17,37.691 -6.53,52.589 -4.35,14.891 -10.49,27.301 -18.42,37.231 -7.93,9.93 -17.33,17.379 -28.21,22.34 -10.88,4.961 -22.85,7.449 -35.9,7.449 -13.37,0 -25.5,-2.641 -36.38,-7.91 -10.87,-5.27 -20.2,-12.961 -27.97,-23.039 -7.78,-10.09 -13.83,-22.582 -18.19,-37.469 -4.35,-14.891 -6.52,-31.953 -6.52,-51.191 0,-38.789 8,-68.34 24.01,-88.661 16.01,-20.32 37.69,-30.48 65.05,-30.48 z m 0.16,281.25 c 22.28,0 42.4,-3.641 60.35,-10.91 17.95,-7.258 33.27,-17.781 45.97,-31.551 12.68,-13.769 22.43,-30.707 29.24,-50.82 6.81,-20.11 10.22,-43 10.22,-68.668 0,-26.621 -3.57,-49.969 -10.68,-70.082 -7.12,-20.11 -17.1,-37.039 -29.95,-50.809 -12.85,-13.769 -28.17,-24.14 -45.96,-31.101 -17.8,-6.95 -37.53,-10.438 -59.19,-10.438 -21.36,0 -40.94,3.488 -58.73,10.438 -17.8,6.961 -33.12,17.332 -45.96,31.101 -12.85,13.77 -22.75,30.699 -29.72,50.809 -6.96,20.113 -10.44,43.461 -10.44,70.082 0,26.281 3.48,49.57 10.44,69.828 6.97,20.262 16.87,37.211 29.72,50.82 12.84,13.61 28.16,23.903 45.96,30.86 17.79,6.953 37.37,10.441 58.73,10.441" /><path
         id="path3439"
         style="fill:#5a5758;fill-opacity:1;fill-rule:nonzero;stroke:none"
         d="m 6378.23,396.871 c 27.11,30.41 57.76,45.629 91.96,45.629 69.94,0 104.91,-37.891 104.91,-113.66 l 0,-203.219 -55.62,0 0,200.891 c 0,25.418 -4.47,43.707 -13.39,54.879 -8.93,11.148 -23.7,16.73 -44.31,16.73 -28.01,0 -55.86,-16.59 -83.55,-49.75 l 0,-222.75 -55.63,0 0,310.629 55.63,0 0,-39.379" /><path
         id="path3441"
         style="fill:#5a5758;fill-opacity:1;fill-rule:nonzero;stroke:none"
         d="m 6765.76,118.121 c -84.76,0 -128.99,33.328 -132.7,100 l 55.63,0 c 0.6,-37.922 26.13,-56.871 76.58,-56.871 23.06,0 40.45,4.57 52.14,13.719 11.68,9.14 17.53,21.16 17.53,36.051 0,6.82 -1.17,12.48 -3.48,16.98 -2.31,4.492 -6.72,8.52 -13.2,12.102 -6.49,3.558 -15.6,7.128 -27.33,10.687 -11.74,3.563 -27.02,7.68 -45.85,12.332 -18.53,4.649 -34.35,9.219 -47.48,13.711 -13.12,4.5 -24.01,10.07 -32.65,16.727 -8.66,6.66 -14.98,14.711 -19,24.16 -4.01,9.461 -6.01,21.301 -6.01,35.562 0,13.008 2.7,24.93 8.12,35.77 5.42,10.84 13.17,20.219 23.23,28.121 10.06,7.898 22.3,14.098 36.7,18.59 14.4,4.488 30.42,6.738 48.08,6.738 81.13,0 122.64,-28.969 124.49,-86.879 l -55.62,0 c -1.86,29.578 -23.72,44.379 -65.62,44.379 -8.62,0 -16.79,-0.859 -24.48,-2.559 -7.71,-1.711 -14.48,-4.269 -20.33,-7.691 -5.86,-3.41 -10.48,-7.758 -13.87,-13.031 -3.39,-5.278 -5.08,-11.328 -5.08,-18.149 0,-6.211 0.62,-11.261 1.85,-15.129 1.23,-3.882 4.63,-7.449 10.19,-10.711 5.56,-3.261 13.98,-6.511 25.25,-9.769 11.27,-3.262 26.93,-7.379 47.01,-12.34 18.52,-4.629 34.73,-9.351 48.63,-14.152 13.9,-4.789 25.4,-10.668 34.51,-17.617 9.1,-6.961 15.98,-15.383 20.61,-25.282 4.63,-9.898 6.95,-22.261 6.95,-37.109 0,-13.609 -2.86,-26.441 -8.58,-38.5 -5.73,-12.059 -14.01,-22.5 -24.83,-31.313 -10.83,-8.816 -23.97,-15.777 -39.44,-20.878 -15.47,-5.09 -32.78,-7.649 -51.95,-7.649" /></g></g></svg>