<svg xmlns="http://www.w3.org/2000/svg" width="116.467" height="168.949" viewBox="0 0 109.18775 158.38957"><g fill="#50d8c8"><path d="M3.025.738c52.143-.442 96.579-.66 102.53 3.03 0 0 5.648 105.651 1.769 146.22l-12.375 2.525-39.143-46.972c-9.431 13.078-20.3 30.86-43.184 52.276L.5 153.524V17.153l11.364.758.253 126.269s25.227-25.314 36.618-47.477l12.88-.506c10.708 15.12 35.102 43.69 35.102 43.69 3.054-28.596-1.01-130.563-1.01-130.563S54.99 6.828 3.025 7.81z" fill-rule="evenodd" stroke="#50d8c8"/><g style="line-height:110.00000238%;-inkscape-font-specification:'SignDict, Normal';text-align:start" font-weight="400" font-size="28.33" font-family="SignDict" letter-spacing="0" word-spacing="0"><path d="M29.556 26.855q-1.416 0-2.266.623-.85.595-.85 1.586 0 1.02.906 1.615.907.567 2.21.85 1.303.255 2.607.652 1.303.368 2.21 1.36.906.991.906 2.634 0 2.097-1.757 3.371-1.756 1.275-4.646 1.275-2.946 0-5.496-1.614l1.445-2.012q1.615 1.303 4.051 1.303 1.672 0 2.692-.595 1.02-.595 1.02-1.558 0-1.048-.907-1.615-.907-.595-2.21-.878-1.303-.283-2.606-.651-1.303-.369-2.21-1.332-.906-.991-.906-2.635 0-2.124 1.586-3.4 1.615-1.302 4.221-1.302 2.663 0 4.816 1.274l-1.02 1.899q-1.7-.85-3.796-.85zM41.714 18.724q.538.51.538 1.246 0 .737-.538 1.275-.539.51-1.332.51t-1.331-.51q-.539-.538-.539-1.275 0-.736.539-1.246.538-.538 1.331-.538.793 0 1.332.538zm-2.607 21.7v-15.44h2.578v15.44h-2.578zM56.85 26.486l.454-1.501h2.124v14.93q0 3.343-1.756 5.27-1.728 1.954-4.901 1.954-1.7 0-3.343-.482-1.615-.481-2.38-1.105l1.077-2.011q2.266 1.275 4.617 1.275 2.012 0 3.06-1.36 1.048-1.331 1.048-3.683V37.79q-.538 1.105-1.784 1.955-1.247.821-2.748.821-3.003 0-4.845-2.153-1.841-2.153-1.841-5.722 0-3.542 1.841-5.695 1.842-2.153 4.845-2.153 1.473 0 2.69.482 1.247.481 1.842 1.161zm-7.337 2.21q-1.19 1.502-1.19 3.995 0 2.493 1.19 4.022 1.19 1.53 3.088 1.53 1.388 0 2.55-.991 1.19-1.02 1.7-2.352v-6.232q-1.332-1.502-4.25-1.502-1.898 0-3.088 1.53zM71.65 27.025q-3.06 0-5.014 2.578v10.822h-2.578v-15.44h2.068l.425 2.351q2.635-2.634 5.808-2.634 2.21 0 3.428 1.501 1.246 1.473 1.246 4.108v10.114h-2.578v-9.66q0-3.74-2.804-3.74zM35.194 49.689h2.578v18.697q0 .822.085 1.615.113.793.198 1.162.113.368.142.425H36.61q-.878-.963-1.218-2.55-.057.113-.17.312-.113.198-.538.736-.425.51-.935.907-.51.368-1.36.68-.821.34-1.728.34-3.003 0-4.844-2.238-1.842-2.238-1.842-5.921 0-3.683 1.842-5.921 1.841-2.238 4.816-2.238 1.331 0 2.464.396 1.162.397 1.615.793l.482.397V49.69zm-7.281 9.915q-1.247 1.615-1.247 4.25 0 2.634 1.247 4.25 1.247 1.586 3.286 1.586 1.218 0 2.267-.964 1.076-.963 1.728-2.578v-6.714q-1.842-1.445-3.995-1.445-2.04 0-3.286 1.615zM45.642 49.887q.539.51.539 1.246 0 .737-.539 1.275-.538.51-1.331.51-.793 0-1.332-.51-.538-.538-.538-1.275 0-.736.538-1.246.539-.538 1.332-.538t1.331.538zm-2.606 21.7v-15.44h2.578v15.44h-2.578zM57.294 71.984q-3.343 0-5.41-2.21-2.069-2.21-2.069-5.864 0-3.71 2.068-5.949 2.068-2.238 5.411-2.238 1.417 0 2.635.312 1.218.311 1.7.651l.51.312-1.048 1.898q-1.587-.85-3.768-.85-2.153 0-3.485 1.615-1.331 1.586-1.331 4.25 0 2.606 1.331 4.192 1.332 1.558 3.485 1.558.935 0 1.87-.255.963-.255 1.444-.51l.482-.255 1.048 2.097q-.198.141-.595.368-.368.198-1.643.538-1.247.34-2.635.34zM73.932 71.22q-1.501.481-3.314.481-3.796 0-3.796-3.966V58.47H64.47v-2.323h2.352v-3.683l2.578-.963v4.646h4.164v2.323h-4.193v8.924q0 1.048.425 1.53.425.453 1.36.453.907 0 2.351-.34l.425 2.181z"/></g></g></svg>